%TF.GenerationSoftware,KiCad,Pcbnew,9.0.8*%
%TF.CreationDate,2026-03-18T19:26:44+01:00*%
%TF.ProjectId,SchematGrupowy,53636865-6d61-4744-9772-75706f77792e,rev?*%
%TF.SameCoordinates,Original*%
%TF.FileFunction,Legend,Top*%
%TF.FilePolarity,Positive*%
%FSLAX46Y46*%
G04 Gerber Fmt 4.6, Leading zero omitted, Abs format (unit mm)*
G04 Created by KiCad (PCBNEW 9.0.8) date 2026-03-18 19:26:44*
%MOMM*%
%LPD*%
G01*
G04 APERTURE LIST*
%ADD10C,0.100000*%
%ADD11C,0.150000*%
%ADD12C,0.254000*%
%ADD13C,0.120000*%
%ADD14C,0.200000*%
G04 APERTURE END LIST*
D10*
X209110034Y-119787575D02*
X209070882Y-119865880D01*
X209070882Y-119865880D02*
X209070882Y-119983337D01*
X209070882Y-119983337D02*
X209110034Y-120100794D01*
X209110034Y-120100794D02*
X209188339Y-120179099D01*
X209188339Y-120179099D02*
X209266644Y-120218252D01*
X209266644Y-120218252D02*
X209423253Y-120257404D01*
X209423253Y-120257404D02*
X209540710Y-120257404D01*
X209540710Y-120257404D02*
X209697320Y-120218252D01*
X209697320Y-120218252D02*
X209775625Y-120179099D01*
X209775625Y-120179099D02*
X209853930Y-120100794D01*
X209853930Y-120100794D02*
X209893082Y-119983337D01*
X209893082Y-119983337D02*
X209893082Y-119905033D01*
X209893082Y-119905033D02*
X209853930Y-119787575D01*
X209853930Y-119787575D02*
X209814777Y-119748423D01*
X209814777Y-119748423D02*
X209540710Y-119748423D01*
X209540710Y-119748423D02*
X209540710Y-119905033D01*
X209893082Y-119396052D02*
X209070882Y-119396052D01*
X209070882Y-119396052D02*
X209893082Y-118926223D01*
X209893082Y-118926223D02*
X209070882Y-118926223D01*
X209893082Y-118534700D02*
X209070882Y-118534700D01*
X209070882Y-118534700D02*
X209070882Y-118338938D01*
X209070882Y-118338938D02*
X209110034Y-118221481D01*
X209110034Y-118221481D02*
X209188339Y-118143176D01*
X209188339Y-118143176D02*
X209266644Y-118104023D01*
X209266644Y-118104023D02*
X209423253Y-118064871D01*
X209423253Y-118064871D02*
X209540710Y-118064871D01*
X209540710Y-118064871D02*
X209697320Y-118104023D01*
X209697320Y-118104023D02*
X209775625Y-118143176D01*
X209775625Y-118143176D02*
X209853930Y-118221481D01*
X209853930Y-118221481D02*
X209893082Y-118338938D01*
X209893082Y-118338938D02*
X209893082Y-118534700D01*
X209071979Y-117605906D02*
X209071979Y-117136077D01*
X209894179Y-117370991D02*
X209071979Y-117370991D01*
X209071979Y-116940315D02*
X209894179Y-116392182D01*
X209071979Y-116392182D02*
X209894179Y-116940315D01*
X209894179Y-116078963D02*
X209071979Y-116078963D01*
X209071979Y-116078963D02*
X209071979Y-115883201D01*
X209071979Y-115883201D02*
X209111131Y-115765744D01*
X209111131Y-115765744D02*
X209189436Y-115687439D01*
X209189436Y-115687439D02*
X209267741Y-115648286D01*
X209267741Y-115648286D02*
X209424350Y-115609134D01*
X209424350Y-115609134D02*
X209541807Y-115609134D01*
X209541807Y-115609134D02*
X209698417Y-115648286D01*
X209698417Y-115648286D02*
X209776722Y-115687439D01*
X209776722Y-115687439D02*
X209855027Y-115765744D01*
X209855027Y-115765744D02*
X209894179Y-115883201D01*
X209894179Y-115883201D02*
X209894179Y-116078963D01*
X215321979Y-98105906D02*
X216144179Y-97831839D01*
X216144179Y-97831839D02*
X215321979Y-97557772D01*
X216065874Y-96813877D02*
X216105027Y-96853029D01*
X216105027Y-96853029D02*
X216144179Y-96970487D01*
X216144179Y-96970487D02*
X216144179Y-97048791D01*
X216144179Y-97048791D02*
X216105027Y-97166248D01*
X216105027Y-97166248D02*
X216026722Y-97244553D01*
X216026722Y-97244553D02*
X215948417Y-97283706D01*
X215948417Y-97283706D02*
X215791807Y-97322858D01*
X215791807Y-97322858D02*
X215674350Y-97322858D01*
X215674350Y-97322858D02*
X215517741Y-97283706D01*
X215517741Y-97283706D02*
X215439436Y-97244553D01*
X215439436Y-97244553D02*
X215361131Y-97166248D01*
X215361131Y-97166248D02*
X215321979Y-97048791D01*
X215321979Y-97048791D02*
X215321979Y-96970487D01*
X215321979Y-96970487D02*
X215361131Y-96853029D01*
X215361131Y-96853029D02*
X215400284Y-96813877D01*
X216065874Y-95991677D02*
X216105027Y-96030829D01*
X216105027Y-96030829D02*
X216144179Y-96148287D01*
X216144179Y-96148287D02*
X216144179Y-96226591D01*
X216144179Y-96226591D02*
X216105027Y-96344048D01*
X216105027Y-96344048D02*
X216026722Y-96422353D01*
X216026722Y-96422353D02*
X215948417Y-96461506D01*
X215948417Y-96461506D02*
X215791807Y-96500658D01*
X215791807Y-96500658D02*
X215674350Y-96500658D01*
X215674350Y-96500658D02*
X215517741Y-96461506D01*
X215517741Y-96461506D02*
X215439436Y-96422353D01*
X215439436Y-96422353D02*
X215361131Y-96344048D01*
X215361131Y-96344048D02*
X215321979Y-96226591D01*
X215321979Y-96226591D02*
X215321979Y-96148287D01*
X215321979Y-96148287D02*
X215361131Y-96030829D01*
X215361131Y-96030829D02*
X215400284Y-95991677D01*
X215321979Y-112304596D02*
X216144179Y-112030529D01*
X216144179Y-112030529D02*
X215321979Y-111756462D01*
X216065874Y-111012567D02*
X216105027Y-111051719D01*
X216105027Y-111051719D02*
X216144179Y-111169177D01*
X216144179Y-111169177D02*
X216144179Y-111247481D01*
X216144179Y-111247481D02*
X216105027Y-111364938D01*
X216105027Y-111364938D02*
X216026722Y-111443243D01*
X216026722Y-111443243D02*
X215948417Y-111482396D01*
X215948417Y-111482396D02*
X215791807Y-111521548D01*
X215791807Y-111521548D02*
X215674350Y-111521548D01*
X215674350Y-111521548D02*
X215517741Y-111482396D01*
X215517741Y-111482396D02*
X215439436Y-111443243D01*
X215439436Y-111443243D02*
X215361131Y-111364938D01*
X215361131Y-111364938D02*
X215321979Y-111247481D01*
X215321979Y-111247481D02*
X215321979Y-111169177D01*
X215321979Y-111169177D02*
X215361131Y-111051719D01*
X215361131Y-111051719D02*
X215400284Y-111012567D01*
X216065874Y-110190367D02*
X216105027Y-110229519D01*
X216105027Y-110229519D02*
X216144179Y-110346977D01*
X216144179Y-110346977D02*
X216144179Y-110425281D01*
X216144179Y-110425281D02*
X216105027Y-110542738D01*
X216105027Y-110542738D02*
X216026722Y-110621043D01*
X216026722Y-110621043D02*
X215948417Y-110660196D01*
X215948417Y-110660196D02*
X215791807Y-110699348D01*
X215791807Y-110699348D02*
X215674350Y-110699348D01*
X215674350Y-110699348D02*
X215517741Y-110660196D01*
X215517741Y-110660196D02*
X215439436Y-110621043D01*
X215439436Y-110621043D02*
X215361131Y-110542738D01*
X215361131Y-110542738D02*
X215321979Y-110425281D01*
X215321979Y-110425281D02*
X215321979Y-110346977D01*
X215321979Y-110346977D02*
X215361131Y-110229519D01*
X215361131Y-110229519D02*
X215400284Y-110190367D01*
X209820483Y-114518620D02*
X209428959Y-114792687D01*
X209820483Y-114988449D02*
X208998283Y-114988449D01*
X208998283Y-114988449D02*
X208998283Y-114675230D01*
X208998283Y-114675230D02*
X209037435Y-114596925D01*
X209037435Y-114596925D02*
X209076588Y-114557772D01*
X209076588Y-114557772D02*
X209154892Y-114518620D01*
X209154892Y-114518620D02*
X209272350Y-114518620D01*
X209272350Y-114518620D02*
X209350654Y-114557772D01*
X209350654Y-114557772D02*
X209389807Y-114596925D01*
X209389807Y-114596925D02*
X209428959Y-114675230D01*
X209428959Y-114675230D02*
X209428959Y-114988449D01*
X208998283Y-114244553D02*
X209820483Y-113696420D01*
X208998283Y-113696420D02*
X209820483Y-114244553D01*
X209820483Y-113383201D02*
X208998283Y-113383201D01*
X208998283Y-113383201D02*
X208998283Y-113187439D01*
X208998283Y-113187439D02*
X209037435Y-113069982D01*
X209037435Y-113069982D02*
X209115740Y-112991677D01*
X209115740Y-112991677D02*
X209194045Y-112952524D01*
X209194045Y-112952524D02*
X209350654Y-112913372D01*
X209350654Y-112913372D02*
X209468111Y-112913372D01*
X209468111Y-112913372D02*
X209624721Y-112952524D01*
X209624721Y-112952524D02*
X209703026Y-112991677D01*
X209703026Y-112991677D02*
X209781331Y-113069982D01*
X209781331Y-113069982D02*
X209820483Y-113187439D01*
X209820483Y-113187439D02*
X209820483Y-113383201D01*
X215361131Y-119807772D02*
X215321979Y-119886077D01*
X215321979Y-119886077D02*
X215321979Y-120003534D01*
X215321979Y-120003534D02*
X215361131Y-120120991D01*
X215361131Y-120120991D02*
X215439436Y-120199296D01*
X215439436Y-120199296D02*
X215517741Y-120238449D01*
X215517741Y-120238449D02*
X215674350Y-120277601D01*
X215674350Y-120277601D02*
X215791807Y-120277601D01*
X215791807Y-120277601D02*
X215948417Y-120238449D01*
X215948417Y-120238449D02*
X216026722Y-120199296D01*
X216026722Y-120199296D02*
X216105027Y-120120991D01*
X216105027Y-120120991D02*
X216144179Y-120003534D01*
X216144179Y-120003534D02*
X216144179Y-119925230D01*
X216144179Y-119925230D02*
X216105027Y-119807772D01*
X216105027Y-119807772D02*
X216065874Y-119768620D01*
X216065874Y-119768620D02*
X215791807Y-119768620D01*
X215791807Y-119768620D02*
X215791807Y-119925230D01*
X216144179Y-119416249D02*
X215321979Y-119416249D01*
X215321979Y-119416249D02*
X216144179Y-118946420D01*
X216144179Y-118946420D02*
X215321979Y-118946420D01*
X216144179Y-118554897D02*
X215321979Y-118554897D01*
X215321979Y-118554897D02*
X215321979Y-118359135D01*
X215321979Y-118359135D02*
X215361131Y-118241678D01*
X215361131Y-118241678D02*
X215439436Y-118163373D01*
X215439436Y-118163373D02*
X215517741Y-118124220D01*
X215517741Y-118124220D02*
X215674350Y-118085068D01*
X215674350Y-118085068D02*
X215791807Y-118085068D01*
X215791807Y-118085068D02*
X215948417Y-118124220D01*
X215948417Y-118124220D02*
X216026722Y-118163373D01*
X216026722Y-118163373D02*
X216105027Y-118241678D01*
X216105027Y-118241678D02*
X216144179Y-118359135D01*
X216144179Y-118359135D02*
X216144179Y-118554897D01*
X216144179Y-114738449D02*
X215321979Y-114738449D01*
X215321979Y-114738449D02*
X215321979Y-114542687D01*
X215321979Y-114542687D02*
X215361131Y-114425230D01*
X215361131Y-114425230D02*
X215439436Y-114346925D01*
X215439436Y-114346925D02*
X215517741Y-114307772D01*
X215517741Y-114307772D02*
X215674350Y-114268620D01*
X215674350Y-114268620D02*
X215791807Y-114268620D01*
X215791807Y-114268620D02*
X215948417Y-114307772D01*
X215948417Y-114307772D02*
X216026722Y-114346925D01*
X216026722Y-114346925D02*
X216105027Y-114425230D01*
X216105027Y-114425230D02*
X216144179Y-114542687D01*
X216144179Y-114542687D02*
X216144179Y-114738449D01*
X216144179Y-113916249D02*
X215321979Y-113916249D01*
X215321979Y-113368115D02*
X215321979Y-113211506D01*
X215321979Y-113211506D02*
X215361131Y-113133201D01*
X215361131Y-113133201D02*
X215439436Y-113054896D01*
X215439436Y-113054896D02*
X215596046Y-113015744D01*
X215596046Y-113015744D02*
X215870112Y-113015744D01*
X215870112Y-113015744D02*
X216026722Y-113054896D01*
X216026722Y-113054896D02*
X216105027Y-113133201D01*
X216105027Y-113133201D02*
X216144179Y-113211506D01*
X216144179Y-113211506D02*
X216144179Y-113368115D01*
X216144179Y-113368115D02*
X216105027Y-113446420D01*
X216105027Y-113446420D02*
X216026722Y-113524725D01*
X216026722Y-113524725D02*
X215870112Y-113563877D01*
X215870112Y-113563877D02*
X215596046Y-113563877D01*
X215596046Y-113563877D02*
X215439436Y-113524725D01*
X215439436Y-113524725D02*
X215361131Y-113446420D01*
X215361131Y-113446420D02*
X215321979Y-113368115D01*
X203571979Y-98105906D02*
X204394179Y-97831839D01*
X204394179Y-97831839D02*
X203571979Y-97557772D01*
X204315874Y-96813877D02*
X204355027Y-96853029D01*
X204355027Y-96853029D02*
X204394179Y-96970487D01*
X204394179Y-96970487D02*
X204394179Y-97048791D01*
X204394179Y-97048791D02*
X204355027Y-97166248D01*
X204355027Y-97166248D02*
X204276722Y-97244553D01*
X204276722Y-97244553D02*
X204198417Y-97283706D01*
X204198417Y-97283706D02*
X204041807Y-97322858D01*
X204041807Y-97322858D02*
X203924350Y-97322858D01*
X203924350Y-97322858D02*
X203767741Y-97283706D01*
X203767741Y-97283706D02*
X203689436Y-97244553D01*
X203689436Y-97244553D02*
X203611131Y-97166248D01*
X203611131Y-97166248D02*
X203571979Y-97048791D01*
X203571979Y-97048791D02*
X203571979Y-96970487D01*
X203571979Y-96970487D02*
X203611131Y-96853029D01*
X203611131Y-96853029D02*
X203650284Y-96813877D01*
X204315874Y-95991677D02*
X204355027Y-96030829D01*
X204355027Y-96030829D02*
X204394179Y-96148287D01*
X204394179Y-96148287D02*
X204394179Y-96226591D01*
X204394179Y-96226591D02*
X204355027Y-96344048D01*
X204355027Y-96344048D02*
X204276722Y-96422353D01*
X204276722Y-96422353D02*
X204198417Y-96461506D01*
X204198417Y-96461506D02*
X204041807Y-96500658D01*
X204041807Y-96500658D02*
X203924350Y-96500658D01*
X203924350Y-96500658D02*
X203767741Y-96461506D01*
X203767741Y-96461506D02*
X203689436Y-96422353D01*
X203689436Y-96422353D02*
X203611131Y-96344048D01*
X203611131Y-96344048D02*
X203571979Y-96226591D01*
X203571979Y-96226591D02*
X203571979Y-96148287D01*
X203571979Y-96148287D02*
X203611131Y-96030829D01*
X203611131Y-96030829D02*
X203650284Y-95991677D01*
X216065874Y-117018620D02*
X216105027Y-117057772D01*
X216105027Y-117057772D02*
X216144179Y-117175230D01*
X216144179Y-117175230D02*
X216144179Y-117253534D01*
X216144179Y-117253534D02*
X216105027Y-117370991D01*
X216105027Y-117370991D02*
X216026722Y-117449296D01*
X216026722Y-117449296D02*
X215948417Y-117488449D01*
X215948417Y-117488449D02*
X215791807Y-117527601D01*
X215791807Y-117527601D02*
X215674350Y-117527601D01*
X215674350Y-117527601D02*
X215517741Y-117488449D01*
X215517741Y-117488449D02*
X215439436Y-117449296D01*
X215439436Y-117449296D02*
X215361131Y-117370991D01*
X215361131Y-117370991D02*
X215321979Y-117253534D01*
X215321979Y-117253534D02*
X215321979Y-117175230D01*
X215321979Y-117175230D02*
X215361131Y-117057772D01*
X215361131Y-117057772D02*
X215400284Y-117018620D01*
X216144179Y-116274725D02*
X216144179Y-116666249D01*
X216144179Y-116666249D02*
X215321979Y-116666249D01*
X216144179Y-116000659D02*
X215321979Y-116000659D01*
X216144179Y-115530830D02*
X215674350Y-115883201D01*
X215321979Y-115530830D02*
X215791807Y-116000659D01*
X216144179Y-95238449D02*
X215321979Y-95238449D01*
X215321979Y-95238449D02*
X215321979Y-95042687D01*
X215321979Y-95042687D02*
X215361131Y-94925230D01*
X215361131Y-94925230D02*
X215439436Y-94846925D01*
X215439436Y-94846925D02*
X215517741Y-94807772D01*
X215517741Y-94807772D02*
X215674350Y-94768620D01*
X215674350Y-94768620D02*
X215791807Y-94768620D01*
X215791807Y-94768620D02*
X215948417Y-94807772D01*
X215948417Y-94807772D02*
X216026722Y-94846925D01*
X216026722Y-94846925D02*
X216105027Y-94925230D01*
X216105027Y-94925230D02*
X216144179Y-95042687D01*
X216144179Y-95042687D02*
X216144179Y-95238449D01*
X216144179Y-94416249D02*
X215321979Y-94416249D01*
X215321979Y-93868115D02*
X215321979Y-93711506D01*
X215321979Y-93711506D02*
X215361131Y-93633201D01*
X215361131Y-93633201D02*
X215439436Y-93554896D01*
X215439436Y-93554896D02*
X215596046Y-93515744D01*
X215596046Y-93515744D02*
X215870112Y-93515744D01*
X215870112Y-93515744D02*
X216026722Y-93554896D01*
X216026722Y-93554896D02*
X216105027Y-93633201D01*
X216105027Y-93633201D02*
X216144179Y-93711506D01*
X216144179Y-93711506D02*
X216144179Y-93868115D01*
X216144179Y-93868115D02*
X216105027Y-93946420D01*
X216105027Y-93946420D02*
X216026722Y-94024725D01*
X216026722Y-94024725D02*
X215870112Y-94063877D01*
X215870112Y-94063877D02*
X215596046Y-94063877D01*
X215596046Y-94063877D02*
X215439436Y-94024725D01*
X215439436Y-94024725D02*
X215361131Y-93946420D01*
X215361131Y-93946420D02*
X215321979Y-93868115D01*
X215361131Y-89506462D02*
X215321979Y-89584767D01*
X215321979Y-89584767D02*
X215321979Y-89702224D01*
X215321979Y-89702224D02*
X215361131Y-89819681D01*
X215361131Y-89819681D02*
X215439436Y-89897986D01*
X215439436Y-89897986D02*
X215517741Y-89937139D01*
X215517741Y-89937139D02*
X215674350Y-89976291D01*
X215674350Y-89976291D02*
X215791807Y-89976291D01*
X215791807Y-89976291D02*
X215948417Y-89937139D01*
X215948417Y-89937139D02*
X216026722Y-89897986D01*
X216026722Y-89897986D02*
X216105027Y-89819681D01*
X216105027Y-89819681D02*
X216144179Y-89702224D01*
X216144179Y-89702224D02*
X216144179Y-89623920D01*
X216144179Y-89623920D02*
X216105027Y-89506462D01*
X216105027Y-89506462D02*
X216065874Y-89467310D01*
X216065874Y-89467310D02*
X215791807Y-89467310D01*
X215791807Y-89467310D02*
X215791807Y-89623920D01*
X216144179Y-89114939D02*
X215321979Y-89114939D01*
X215321979Y-89114939D02*
X216144179Y-88645110D01*
X216144179Y-88645110D02*
X215321979Y-88645110D01*
X216144179Y-88253587D02*
X215321979Y-88253587D01*
X215321979Y-88253587D02*
X215321979Y-88057825D01*
X215321979Y-88057825D02*
X215361131Y-87940368D01*
X215361131Y-87940368D02*
X215439436Y-87862063D01*
X215439436Y-87862063D02*
X215517741Y-87822910D01*
X215517741Y-87822910D02*
X215674350Y-87783758D01*
X215674350Y-87783758D02*
X215791807Y-87783758D01*
X215791807Y-87783758D02*
X215948417Y-87822910D01*
X215948417Y-87822910D02*
X216026722Y-87862063D01*
X216026722Y-87862063D02*
X216105027Y-87940368D01*
X216105027Y-87940368D02*
X216144179Y-88057825D01*
X216144179Y-88057825D02*
X216144179Y-88253587D01*
X203519432Y-89506462D02*
X203480280Y-89584767D01*
X203480280Y-89584767D02*
X203480280Y-89702224D01*
X203480280Y-89702224D02*
X203519432Y-89819681D01*
X203519432Y-89819681D02*
X203597737Y-89897986D01*
X203597737Y-89897986D02*
X203676042Y-89937139D01*
X203676042Y-89937139D02*
X203832651Y-89976291D01*
X203832651Y-89976291D02*
X203950108Y-89976291D01*
X203950108Y-89976291D02*
X204106718Y-89937139D01*
X204106718Y-89937139D02*
X204185023Y-89897986D01*
X204185023Y-89897986D02*
X204263328Y-89819681D01*
X204263328Y-89819681D02*
X204302480Y-89702224D01*
X204302480Y-89702224D02*
X204302480Y-89623920D01*
X204302480Y-89623920D02*
X204263328Y-89506462D01*
X204263328Y-89506462D02*
X204224175Y-89467310D01*
X204224175Y-89467310D02*
X203950108Y-89467310D01*
X203950108Y-89467310D02*
X203950108Y-89623920D01*
X204302480Y-89114939D02*
X203480280Y-89114939D01*
X203480280Y-89114939D02*
X204302480Y-88645110D01*
X204302480Y-88645110D02*
X203480280Y-88645110D01*
X204302480Y-88253587D02*
X203480280Y-88253587D01*
X203480280Y-88253587D02*
X203480280Y-88057825D01*
X203480280Y-88057825D02*
X203519432Y-87940368D01*
X203519432Y-87940368D02*
X203597737Y-87862063D01*
X203597737Y-87862063D02*
X203676042Y-87822910D01*
X203676042Y-87822910D02*
X203832651Y-87783758D01*
X203832651Y-87783758D02*
X203950108Y-87783758D01*
X203950108Y-87783758D02*
X204106718Y-87822910D01*
X204106718Y-87822910D02*
X204185023Y-87862063D01*
X204185023Y-87862063D02*
X204263328Y-87940368D01*
X204263328Y-87940368D02*
X204302480Y-88057825D01*
X204302480Y-88057825D02*
X204302480Y-88253587D01*
X204320483Y-92268620D02*
X203928959Y-92542687D01*
X204320483Y-92738449D02*
X203498283Y-92738449D01*
X203498283Y-92738449D02*
X203498283Y-92425230D01*
X203498283Y-92425230D02*
X203537435Y-92346925D01*
X203537435Y-92346925D02*
X203576588Y-92307772D01*
X203576588Y-92307772D02*
X203654892Y-92268620D01*
X203654892Y-92268620D02*
X203772350Y-92268620D01*
X203772350Y-92268620D02*
X203850654Y-92307772D01*
X203850654Y-92307772D02*
X203889807Y-92346925D01*
X203889807Y-92346925D02*
X203928959Y-92425230D01*
X203928959Y-92425230D02*
X203928959Y-92738449D01*
X203498283Y-91994553D02*
X204320483Y-91446420D01*
X203498283Y-91446420D02*
X204320483Y-91994553D01*
X204320483Y-91133201D02*
X203498283Y-91133201D01*
X203498283Y-91133201D02*
X203498283Y-90937439D01*
X203498283Y-90937439D02*
X203537435Y-90819982D01*
X203537435Y-90819982D02*
X203615740Y-90741677D01*
X203615740Y-90741677D02*
X203694045Y-90702524D01*
X203694045Y-90702524D02*
X203850654Y-90663372D01*
X203850654Y-90663372D02*
X203968111Y-90663372D01*
X203968111Y-90663372D02*
X204124721Y-90702524D01*
X204124721Y-90702524D02*
X204203026Y-90741677D01*
X204203026Y-90741677D02*
X204281331Y-90819982D01*
X204281331Y-90819982D02*
X204320483Y-90937439D01*
X204320483Y-90937439D02*
X204320483Y-91133201D01*
X203571979Y-95355906D02*
X203571979Y-94886077D01*
X204394179Y-95120991D02*
X203571979Y-95120991D01*
X203571979Y-94690315D02*
X204394179Y-94142182D01*
X203571979Y-94142182D02*
X204394179Y-94690315D01*
X204394179Y-93828963D02*
X203571979Y-93828963D01*
X203571979Y-93828963D02*
X203571979Y-93633201D01*
X203571979Y-93633201D02*
X203611131Y-93515744D01*
X203611131Y-93515744D02*
X203689436Y-93437439D01*
X203689436Y-93437439D02*
X203767741Y-93398286D01*
X203767741Y-93398286D02*
X203924350Y-93359134D01*
X203924350Y-93359134D02*
X204041807Y-93359134D01*
X204041807Y-93359134D02*
X204198417Y-93398286D01*
X204198417Y-93398286D02*
X204276722Y-93437439D01*
X204276722Y-93437439D02*
X204355027Y-93515744D01*
X204355027Y-93515744D02*
X204394179Y-93633201D01*
X204394179Y-93633201D02*
X204394179Y-93828963D01*
X208980280Y-112304596D02*
X209802480Y-112030529D01*
X209802480Y-112030529D02*
X208980280Y-111756462D01*
X209724175Y-111012567D02*
X209763328Y-111051719D01*
X209763328Y-111051719D02*
X209802480Y-111169177D01*
X209802480Y-111169177D02*
X209802480Y-111247481D01*
X209802480Y-111247481D02*
X209763328Y-111364938D01*
X209763328Y-111364938D02*
X209685023Y-111443243D01*
X209685023Y-111443243D02*
X209606718Y-111482396D01*
X209606718Y-111482396D02*
X209450108Y-111521548D01*
X209450108Y-111521548D02*
X209332651Y-111521548D01*
X209332651Y-111521548D02*
X209176042Y-111482396D01*
X209176042Y-111482396D02*
X209097737Y-111443243D01*
X209097737Y-111443243D02*
X209019432Y-111364938D01*
X209019432Y-111364938D02*
X208980280Y-111247481D01*
X208980280Y-111247481D02*
X208980280Y-111169177D01*
X208980280Y-111169177D02*
X209019432Y-111051719D01*
X209019432Y-111051719D02*
X209058585Y-111012567D01*
X209724175Y-110190367D02*
X209763328Y-110229519D01*
X209763328Y-110229519D02*
X209802480Y-110346977D01*
X209802480Y-110346977D02*
X209802480Y-110425281D01*
X209802480Y-110425281D02*
X209763328Y-110542738D01*
X209763328Y-110542738D02*
X209685023Y-110621043D01*
X209685023Y-110621043D02*
X209606718Y-110660196D01*
X209606718Y-110660196D02*
X209450108Y-110699348D01*
X209450108Y-110699348D02*
X209332651Y-110699348D01*
X209332651Y-110699348D02*
X209176042Y-110660196D01*
X209176042Y-110660196D02*
X209097737Y-110621043D01*
X209097737Y-110621043D02*
X209019432Y-110542738D01*
X209019432Y-110542738D02*
X208980280Y-110425281D01*
X208980280Y-110425281D02*
X208980280Y-110346977D01*
X208980280Y-110346977D02*
X209019432Y-110229519D01*
X209019432Y-110229519D02*
X209058585Y-110190367D01*
X216065874Y-92268620D02*
X216105027Y-92307772D01*
X216105027Y-92307772D02*
X216144179Y-92425230D01*
X216144179Y-92425230D02*
X216144179Y-92503534D01*
X216144179Y-92503534D02*
X216105027Y-92620991D01*
X216105027Y-92620991D02*
X216026722Y-92699296D01*
X216026722Y-92699296D02*
X215948417Y-92738449D01*
X215948417Y-92738449D02*
X215791807Y-92777601D01*
X215791807Y-92777601D02*
X215674350Y-92777601D01*
X215674350Y-92777601D02*
X215517741Y-92738449D01*
X215517741Y-92738449D02*
X215439436Y-92699296D01*
X215439436Y-92699296D02*
X215361131Y-92620991D01*
X215361131Y-92620991D02*
X215321979Y-92503534D01*
X215321979Y-92503534D02*
X215321979Y-92425230D01*
X215321979Y-92425230D02*
X215361131Y-92307772D01*
X215361131Y-92307772D02*
X215400284Y-92268620D01*
X216144179Y-91524725D02*
X216144179Y-91916249D01*
X216144179Y-91916249D02*
X215321979Y-91916249D01*
X216144179Y-91250659D02*
X215321979Y-91250659D01*
X216144179Y-90780830D02*
X215674350Y-91133201D01*
X215321979Y-90780830D02*
X215791807Y-91250659D01*
D11*
X185738095Y-92954819D02*
X185738095Y-93764342D01*
X185738095Y-93764342D02*
X185785714Y-93859580D01*
X185785714Y-93859580D02*
X185833333Y-93907200D01*
X185833333Y-93907200D02*
X185928571Y-93954819D01*
X185928571Y-93954819D02*
X186119047Y-93954819D01*
X186119047Y-93954819D02*
X186214285Y-93907200D01*
X186214285Y-93907200D02*
X186261904Y-93859580D01*
X186261904Y-93859580D02*
X186309523Y-93764342D01*
X186309523Y-93764342D02*
X186309523Y-92954819D01*
X187309523Y-93954819D02*
X186738095Y-93954819D01*
X187023809Y-93954819D02*
X187023809Y-92954819D01*
X187023809Y-92954819D02*
X186928571Y-93097676D01*
X186928571Y-93097676D02*
X186833333Y-93192914D01*
X186833333Y-93192914D02*
X186738095Y-93240533D01*
X165064104Y-111948568D02*
X165064104Y-110948568D01*
X165064104Y-110948568D02*
X165302199Y-110948568D01*
X165302199Y-110948568D02*
X165445056Y-110996187D01*
X165445056Y-110996187D02*
X165540294Y-111091425D01*
X165540294Y-111091425D02*
X165587913Y-111186663D01*
X165587913Y-111186663D02*
X165635532Y-111377139D01*
X165635532Y-111377139D02*
X165635532Y-111519996D01*
X165635532Y-111519996D02*
X165587913Y-111710472D01*
X165587913Y-111710472D02*
X165540294Y-111805710D01*
X165540294Y-111805710D02*
X165445056Y-111900949D01*
X165445056Y-111900949D02*
X165302199Y-111948568D01*
X165302199Y-111948568D02*
X165064104Y-111948568D01*
X166016485Y-111043806D02*
X166064104Y-110996187D01*
X166064104Y-110996187D02*
X166159342Y-110948568D01*
X166159342Y-110948568D02*
X166397437Y-110948568D01*
X166397437Y-110948568D02*
X166492675Y-110996187D01*
X166492675Y-110996187D02*
X166540294Y-111043806D01*
X166540294Y-111043806D02*
X166587913Y-111139044D01*
X166587913Y-111139044D02*
X166587913Y-111234282D01*
X166587913Y-111234282D02*
X166540294Y-111377139D01*
X166540294Y-111377139D02*
X165968866Y-111948568D01*
X165968866Y-111948568D02*
X166587913Y-111948568D01*
X205725933Y-121550366D02*
X205725933Y-122137652D01*
X205725933Y-122137652D02*
X205686780Y-122255109D01*
X205686780Y-122255109D02*
X205608476Y-122333414D01*
X205608476Y-122333414D02*
X205491018Y-122372566D01*
X205491018Y-122372566D02*
X205412714Y-122372566D01*
X206039152Y-121550366D02*
X206548133Y-121550366D01*
X206548133Y-121550366D02*
X206274066Y-121863585D01*
X206274066Y-121863585D02*
X206391523Y-121863585D01*
X206391523Y-121863585D02*
X206469828Y-121902737D01*
X206469828Y-121902737D02*
X206508980Y-121941890D01*
X206508980Y-121941890D02*
X206548133Y-122020194D01*
X206548133Y-122020194D02*
X206548133Y-122215956D01*
X206548133Y-122215956D02*
X206508980Y-122294261D01*
X206508980Y-122294261D02*
X206469828Y-122333414D01*
X206469828Y-122333414D02*
X206391523Y-122372566D01*
X206391523Y-122372566D02*
X206156609Y-122372566D01*
X206156609Y-122372566D02*
X206078304Y-122333414D01*
X206078304Y-122333414D02*
X206039152Y-122294261D01*
X169394642Y-113859580D02*
X169347023Y-113907200D01*
X169347023Y-113907200D02*
X169204166Y-113954819D01*
X169204166Y-113954819D02*
X169108928Y-113954819D01*
X169108928Y-113954819D02*
X168966071Y-113907200D01*
X168966071Y-113907200D02*
X168870833Y-113811961D01*
X168870833Y-113811961D02*
X168823214Y-113716723D01*
X168823214Y-113716723D02*
X168775595Y-113526247D01*
X168775595Y-113526247D02*
X168775595Y-113383390D01*
X168775595Y-113383390D02*
X168823214Y-113192914D01*
X168823214Y-113192914D02*
X168870833Y-113097676D01*
X168870833Y-113097676D02*
X168966071Y-113002438D01*
X168966071Y-113002438D02*
X169108928Y-112954819D01*
X169108928Y-112954819D02*
X169204166Y-112954819D01*
X169204166Y-112954819D02*
X169347023Y-113002438D01*
X169347023Y-113002438D02*
X169394642Y-113050057D01*
X170347023Y-113954819D02*
X169775595Y-113954819D01*
X170061309Y-113954819D02*
X170061309Y-112954819D01*
X170061309Y-112954819D02*
X169966071Y-113097676D01*
X169966071Y-113097676D02*
X169870833Y-113192914D01*
X169870833Y-113192914D02*
X169775595Y-113240533D01*
X170680357Y-112954819D02*
X171299404Y-112954819D01*
X171299404Y-112954819D02*
X170966071Y-113335771D01*
X170966071Y-113335771D02*
X171108928Y-113335771D01*
X171108928Y-113335771D02*
X171204166Y-113383390D01*
X171204166Y-113383390D02*
X171251785Y-113431009D01*
X171251785Y-113431009D02*
X171299404Y-113526247D01*
X171299404Y-113526247D02*
X171299404Y-113764342D01*
X171299404Y-113764342D02*
X171251785Y-113859580D01*
X171251785Y-113859580D02*
X171204166Y-113907200D01*
X171204166Y-113907200D02*
X171108928Y-113954819D01*
X171108928Y-113954819D02*
X170823214Y-113954819D01*
X170823214Y-113954819D02*
X170727976Y-113907200D01*
X170727976Y-113907200D02*
X170680357Y-113859580D01*
X190859580Y-122142857D02*
X190907200Y-122190476D01*
X190907200Y-122190476D02*
X190954819Y-122333333D01*
X190954819Y-122333333D02*
X190954819Y-122428571D01*
X190954819Y-122428571D02*
X190907200Y-122571428D01*
X190907200Y-122571428D02*
X190811961Y-122666666D01*
X190811961Y-122666666D02*
X190716723Y-122714285D01*
X190716723Y-122714285D02*
X190526247Y-122761904D01*
X190526247Y-122761904D02*
X190383390Y-122761904D01*
X190383390Y-122761904D02*
X190192914Y-122714285D01*
X190192914Y-122714285D02*
X190097676Y-122666666D01*
X190097676Y-122666666D02*
X190002438Y-122571428D01*
X190002438Y-122571428D02*
X189954819Y-122428571D01*
X189954819Y-122428571D02*
X189954819Y-122333333D01*
X189954819Y-122333333D02*
X190002438Y-122190476D01*
X190002438Y-122190476D02*
X190050057Y-122142857D01*
X190954819Y-121190476D02*
X190954819Y-121761904D01*
X190954819Y-121476190D02*
X189954819Y-121476190D01*
X189954819Y-121476190D02*
X190097676Y-121571428D01*
X190097676Y-121571428D02*
X190192914Y-121666666D01*
X190192914Y-121666666D02*
X190240533Y-121761904D01*
X189954819Y-120333333D02*
X189954819Y-120523809D01*
X189954819Y-120523809D02*
X190002438Y-120619047D01*
X190002438Y-120619047D02*
X190050057Y-120666666D01*
X190050057Y-120666666D02*
X190192914Y-120761904D01*
X190192914Y-120761904D02*
X190383390Y-120809523D01*
X190383390Y-120809523D02*
X190764342Y-120809523D01*
X190764342Y-120809523D02*
X190859580Y-120761904D01*
X190859580Y-120761904D02*
X190907200Y-120714285D01*
X190907200Y-120714285D02*
X190954819Y-120619047D01*
X190954819Y-120619047D02*
X190954819Y-120428571D01*
X190954819Y-120428571D02*
X190907200Y-120333333D01*
X190907200Y-120333333D02*
X190859580Y-120285714D01*
X190859580Y-120285714D02*
X190764342Y-120238095D01*
X190764342Y-120238095D02*
X190526247Y-120238095D01*
X190526247Y-120238095D02*
X190431009Y-120285714D01*
X190431009Y-120285714D02*
X190383390Y-120333333D01*
X190383390Y-120333333D02*
X190335771Y-120428571D01*
X190335771Y-120428571D02*
X190335771Y-120619047D01*
X190335771Y-120619047D02*
X190383390Y-120714285D01*
X190383390Y-120714285D02*
X190431009Y-120761904D01*
X190431009Y-120761904D02*
X190526247Y-120809523D01*
X172679580Y-92629166D02*
X172727200Y-92676785D01*
X172727200Y-92676785D02*
X172774819Y-92819642D01*
X172774819Y-92819642D02*
X172774819Y-92914880D01*
X172774819Y-92914880D02*
X172727200Y-93057737D01*
X172727200Y-93057737D02*
X172631961Y-93152975D01*
X172631961Y-93152975D02*
X172536723Y-93200594D01*
X172536723Y-93200594D02*
X172346247Y-93248213D01*
X172346247Y-93248213D02*
X172203390Y-93248213D01*
X172203390Y-93248213D02*
X172012914Y-93200594D01*
X172012914Y-93200594D02*
X171917676Y-93152975D01*
X171917676Y-93152975D02*
X171822438Y-93057737D01*
X171822438Y-93057737D02*
X171774819Y-92914880D01*
X171774819Y-92914880D02*
X171774819Y-92819642D01*
X171774819Y-92819642D02*
X171822438Y-92676785D01*
X171822438Y-92676785D02*
X171870057Y-92629166D01*
X171774819Y-91724404D02*
X171774819Y-92200594D01*
X171774819Y-92200594D02*
X172251009Y-92248213D01*
X172251009Y-92248213D02*
X172203390Y-92200594D01*
X172203390Y-92200594D02*
X172155771Y-92105356D01*
X172155771Y-92105356D02*
X172155771Y-91867261D01*
X172155771Y-91867261D02*
X172203390Y-91772023D01*
X172203390Y-91772023D02*
X172251009Y-91724404D01*
X172251009Y-91724404D02*
X172346247Y-91676785D01*
X172346247Y-91676785D02*
X172584342Y-91676785D01*
X172584342Y-91676785D02*
X172679580Y-91724404D01*
X172679580Y-91724404D02*
X172727200Y-91772023D01*
X172727200Y-91772023D02*
X172774819Y-91867261D01*
X172774819Y-91867261D02*
X172774819Y-92105356D01*
X172774819Y-92105356D02*
X172727200Y-92200594D01*
X172727200Y-92200594D02*
X172679580Y-92248213D01*
X180859580Y-114642857D02*
X180907200Y-114690476D01*
X180907200Y-114690476D02*
X180954819Y-114833333D01*
X180954819Y-114833333D02*
X180954819Y-114928571D01*
X180954819Y-114928571D02*
X180907200Y-115071428D01*
X180907200Y-115071428D02*
X180811961Y-115166666D01*
X180811961Y-115166666D02*
X180716723Y-115214285D01*
X180716723Y-115214285D02*
X180526247Y-115261904D01*
X180526247Y-115261904D02*
X180383390Y-115261904D01*
X180383390Y-115261904D02*
X180192914Y-115214285D01*
X180192914Y-115214285D02*
X180097676Y-115166666D01*
X180097676Y-115166666D02*
X180002438Y-115071428D01*
X180002438Y-115071428D02*
X179954819Y-114928571D01*
X179954819Y-114928571D02*
X179954819Y-114833333D01*
X179954819Y-114833333D02*
X180002438Y-114690476D01*
X180002438Y-114690476D02*
X180050057Y-114642857D01*
X180954819Y-113690476D02*
X180954819Y-114261904D01*
X180954819Y-113976190D02*
X179954819Y-113976190D01*
X179954819Y-113976190D02*
X180097676Y-114071428D01*
X180097676Y-114071428D02*
X180192914Y-114166666D01*
X180192914Y-114166666D02*
X180240533Y-114261904D01*
X180954819Y-112738095D02*
X180954819Y-113309523D01*
X180954819Y-113023809D02*
X179954819Y-113023809D01*
X179954819Y-113023809D02*
X180097676Y-113119047D01*
X180097676Y-113119047D02*
X180192914Y-113214285D01*
X180192914Y-113214285D02*
X180240533Y-113309523D01*
X182333333Y-82954819D02*
X182000000Y-82478628D01*
X181761905Y-82954819D02*
X181761905Y-81954819D01*
X181761905Y-81954819D02*
X182142857Y-81954819D01*
X182142857Y-81954819D02*
X182238095Y-82002438D01*
X182238095Y-82002438D02*
X182285714Y-82050057D01*
X182285714Y-82050057D02*
X182333333Y-82145295D01*
X182333333Y-82145295D02*
X182333333Y-82288152D01*
X182333333Y-82288152D02*
X182285714Y-82383390D01*
X182285714Y-82383390D02*
X182238095Y-82431009D01*
X182238095Y-82431009D02*
X182142857Y-82478628D01*
X182142857Y-82478628D02*
X181761905Y-82478628D01*
X183190476Y-81954819D02*
X183000000Y-81954819D01*
X183000000Y-81954819D02*
X182904762Y-82002438D01*
X182904762Y-82002438D02*
X182857143Y-82050057D01*
X182857143Y-82050057D02*
X182761905Y-82192914D01*
X182761905Y-82192914D02*
X182714286Y-82383390D01*
X182714286Y-82383390D02*
X182714286Y-82764342D01*
X182714286Y-82764342D02*
X182761905Y-82859580D01*
X182761905Y-82859580D02*
X182809524Y-82907200D01*
X182809524Y-82907200D02*
X182904762Y-82954819D01*
X182904762Y-82954819D02*
X183095238Y-82954819D01*
X183095238Y-82954819D02*
X183190476Y-82907200D01*
X183190476Y-82907200D02*
X183238095Y-82859580D01*
X183238095Y-82859580D02*
X183285714Y-82764342D01*
X183285714Y-82764342D02*
X183285714Y-82526247D01*
X183285714Y-82526247D02*
X183238095Y-82431009D01*
X183238095Y-82431009D02*
X183190476Y-82383390D01*
X183190476Y-82383390D02*
X183095238Y-82335771D01*
X183095238Y-82335771D02*
X182904762Y-82335771D01*
X182904762Y-82335771D02*
X182809524Y-82383390D01*
X182809524Y-82383390D02*
X182761905Y-82431009D01*
X182761905Y-82431009D02*
X182714286Y-82526247D01*
X180359580Y-99142857D02*
X180407200Y-99190476D01*
X180407200Y-99190476D02*
X180454819Y-99333333D01*
X180454819Y-99333333D02*
X180454819Y-99428571D01*
X180454819Y-99428571D02*
X180407200Y-99571428D01*
X180407200Y-99571428D02*
X180311961Y-99666666D01*
X180311961Y-99666666D02*
X180216723Y-99714285D01*
X180216723Y-99714285D02*
X180026247Y-99761904D01*
X180026247Y-99761904D02*
X179883390Y-99761904D01*
X179883390Y-99761904D02*
X179692914Y-99714285D01*
X179692914Y-99714285D02*
X179597676Y-99666666D01*
X179597676Y-99666666D02*
X179502438Y-99571428D01*
X179502438Y-99571428D02*
X179454819Y-99428571D01*
X179454819Y-99428571D02*
X179454819Y-99333333D01*
X179454819Y-99333333D02*
X179502438Y-99190476D01*
X179502438Y-99190476D02*
X179550057Y-99142857D01*
X180454819Y-98190476D02*
X180454819Y-98761904D01*
X180454819Y-98476190D02*
X179454819Y-98476190D01*
X179454819Y-98476190D02*
X179597676Y-98571428D01*
X179597676Y-98571428D02*
X179692914Y-98666666D01*
X179692914Y-98666666D02*
X179740533Y-98761904D01*
X179454819Y-97571428D02*
X179454819Y-97476190D01*
X179454819Y-97476190D02*
X179502438Y-97380952D01*
X179502438Y-97380952D02*
X179550057Y-97333333D01*
X179550057Y-97333333D02*
X179645295Y-97285714D01*
X179645295Y-97285714D02*
X179835771Y-97238095D01*
X179835771Y-97238095D02*
X180073866Y-97238095D01*
X180073866Y-97238095D02*
X180264342Y-97285714D01*
X180264342Y-97285714D02*
X180359580Y-97333333D01*
X180359580Y-97333333D02*
X180407200Y-97380952D01*
X180407200Y-97380952D02*
X180454819Y-97476190D01*
X180454819Y-97476190D02*
X180454819Y-97571428D01*
X180454819Y-97571428D02*
X180407200Y-97666666D01*
X180407200Y-97666666D02*
X180359580Y-97714285D01*
X180359580Y-97714285D02*
X180264342Y-97761904D01*
X180264342Y-97761904D02*
X180073866Y-97809523D01*
X180073866Y-97809523D02*
X179835771Y-97809523D01*
X179835771Y-97809523D02*
X179645295Y-97761904D01*
X179645295Y-97761904D02*
X179550057Y-97714285D01*
X179550057Y-97714285D02*
X179502438Y-97666666D01*
X179502438Y-97666666D02*
X179454819Y-97571428D01*
X180833333Y-101954819D02*
X180500000Y-101478628D01*
X180261905Y-101954819D02*
X180261905Y-100954819D01*
X180261905Y-100954819D02*
X180642857Y-100954819D01*
X180642857Y-100954819D02*
X180738095Y-101002438D01*
X180738095Y-101002438D02*
X180785714Y-101050057D01*
X180785714Y-101050057D02*
X180833333Y-101145295D01*
X180833333Y-101145295D02*
X180833333Y-101288152D01*
X180833333Y-101288152D02*
X180785714Y-101383390D01*
X180785714Y-101383390D02*
X180738095Y-101431009D01*
X180738095Y-101431009D02*
X180642857Y-101478628D01*
X180642857Y-101478628D02*
X180261905Y-101478628D01*
X181166667Y-100954819D02*
X181833333Y-100954819D01*
X181833333Y-100954819D02*
X181404762Y-101954819D01*
X178333333Y-83859580D02*
X178285714Y-83907200D01*
X178285714Y-83907200D02*
X178142857Y-83954819D01*
X178142857Y-83954819D02*
X178047619Y-83954819D01*
X178047619Y-83954819D02*
X177904762Y-83907200D01*
X177904762Y-83907200D02*
X177809524Y-83811961D01*
X177809524Y-83811961D02*
X177761905Y-83716723D01*
X177761905Y-83716723D02*
X177714286Y-83526247D01*
X177714286Y-83526247D02*
X177714286Y-83383390D01*
X177714286Y-83383390D02*
X177761905Y-83192914D01*
X177761905Y-83192914D02*
X177809524Y-83097676D01*
X177809524Y-83097676D02*
X177904762Y-83002438D01*
X177904762Y-83002438D02*
X178047619Y-82954819D01*
X178047619Y-82954819D02*
X178142857Y-82954819D01*
X178142857Y-82954819D02*
X178285714Y-83002438D01*
X178285714Y-83002438D02*
X178333333Y-83050057D01*
X179190476Y-82954819D02*
X179000000Y-82954819D01*
X179000000Y-82954819D02*
X178904762Y-83002438D01*
X178904762Y-83002438D02*
X178857143Y-83050057D01*
X178857143Y-83050057D02*
X178761905Y-83192914D01*
X178761905Y-83192914D02*
X178714286Y-83383390D01*
X178714286Y-83383390D02*
X178714286Y-83764342D01*
X178714286Y-83764342D02*
X178761905Y-83859580D01*
X178761905Y-83859580D02*
X178809524Y-83907200D01*
X178809524Y-83907200D02*
X178904762Y-83954819D01*
X178904762Y-83954819D02*
X179095238Y-83954819D01*
X179095238Y-83954819D02*
X179190476Y-83907200D01*
X179190476Y-83907200D02*
X179238095Y-83859580D01*
X179238095Y-83859580D02*
X179285714Y-83764342D01*
X179285714Y-83764342D02*
X179285714Y-83526247D01*
X179285714Y-83526247D02*
X179238095Y-83431009D01*
X179238095Y-83431009D02*
X179190476Y-83383390D01*
X179190476Y-83383390D02*
X179095238Y-83335771D01*
X179095238Y-83335771D02*
X178904762Y-83335771D01*
X178904762Y-83335771D02*
X178809524Y-83383390D01*
X178809524Y-83383390D02*
X178761905Y-83431009D01*
X178761905Y-83431009D02*
X178714286Y-83526247D01*
X185859580Y-98666666D02*
X185907200Y-98714285D01*
X185907200Y-98714285D02*
X185954819Y-98857142D01*
X185954819Y-98857142D02*
X185954819Y-98952380D01*
X185954819Y-98952380D02*
X185907200Y-99095237D01*
X185907200Y-99095237D02*
X185811961Y-99190475D01*
X185811961Y-99190475D02*
X185716723Y-99238094D01*
X185716723Y-99238094D02*
X185526247Y-99285713D01*
X185526247Y-99285713D02*
X185383390Y-99285713D01*
X185383390Y-99285713D02*
X185192914Y-99238094D01*
X185192914Y-99238094D02*
X185097676Y-99190475D01*
X185097676Y-99190475D02*
X185002438Y-99095237D01*
X185002438Y-99095237D02*
X184954819Y-98952380D01*
X184954819Y-98952380D02*
X184954819Y-98857142D01*
X184954819Y-98857142D02*
X185002438Y-98714285D01*
X185002438Y-98714285D02*
X185050057Y-98666666D01*
X185288152Y-97809523D02*
X185954819Y-97809523D01*
X184907200Y-98047618D02*
X185621485Y-98285713D01*
X185621485Y-98285713D02*
X185621485Y-97666666D01*
X199294261Y-123528557D02*
X199333414Y-123567709D01*
X199333414Y-123567709D02*
X199372566Y-123685167D01*
X199372566Y-123685167D02*
X199372566Y-123763471D01*
X199372566Y-123763471D02*
X199333414Y-123880928D01*
X199333414Y-123880928D02*
X199255109Y-123959233D01*
X199255109Y-123959233D02*
X199176804Y-123998386D01*
X199176804Y-123998386D02*
X199020194Y-124037538D01*
X199020194Y-124037538D02*
X198902737Y-124037538D01*
X198902737Y-124037538D02*
X198746128Y-123998386D01*
X198746128Y-123998386D02*
X198667823Y-123959233D01*
X198667823Y-123959233D02*
X198589518Y-123880928D01*
X198589518Y-123880928D02*
X198550366Y-123763471D01*
X198550366Y-123763471D02*
X198550366Y-123685167D01*
X198550366Y-123685167D02*
X198589518Y-123567709D01*
X198589518Y-123567709D02*
X198628671Y-123528557D01*
X199372566Y-122745509D02*
X199372566Y-123215338D01*
X199372566Y-122980424D02*
X198550366Y-122980424D01*
X198550366Y-122980424D02*
X198667823Y-123058728D01*
X198667823Y-123058728D02*
X198746128Y-123137033D01*
X198746128Y-123137033D02*
X198785280Y-123215338D01*
X198550366Y-122001614D02*
X198550366Y-122393138D01*
X198550366Y-122393138D02*
X198941890Y-122432290D01*
X198941890Y-122432290D02*
X198902737Y-122393138D01*
X198902737Y-122393138D02*
X198863585Y-122314833D01*
X198863585Y-122314833D02*
X198863585Y-122119071D01*
X198863585Y-122119071D02*
X198902737Y-122040766D01*
X198902737Y-122040766D02*
X198941890Y-122001614D01*
X198941890Y-122001614D02*
X199020194Y-121962461D01*
X199020194Y-121962461D02*
X199215956Y-121962461D01*
X199215956Y-121962461D02*
X199294261Y-122001614D01*
X199294261Y-122001614D02*
X199333414Y-122040766D01*
X199333414Y-122040766D02*
X199372566Y-122119071D01*
X199372566Y-122119071D02*
X199372566Y-122314833D01*
X199372566Y-122314833D02*
X199333414Y-122393138D01*
X199333414Y-122393138D02*
X199294261Y-122432290D01*
X191513333Y-84359580D02*
X191465714Y-84407200D01*
X191465714Y-84407200D02*
X191322857Y-84454819D01*
X191322857Y-84454819D02*
X191227619Y-84454819D01*
X191227619Y-84454819D02*
X191084762Y-84407200D01*
X191084762Y-84407200D02*
X190989524Y-84311961D01*
X190989524Y-84311961D02*
X190941905Y-84216723D01*
X190941905Y-84216723D02*
X190894286Y-84026247D01*
X190894286Y-84026247D02*
X190894286Y-83883390D01*
X190894286Y-83883390D02*
X190941905Y-83692914D01*
X190941905Y-83692914D02*
X190989524Y-83597676D01*
X190989524Y-83597676D02*
X191084762Y-83502438D01*
X191084762Y-83502438D02*
X191227619Y-83454819D01*
X191227619Y-83454819D02*
X191322857Y-83454819D01*
X191322857Y-83454819D02*
X191465714Y-83502438D01*
X191465714Y-83502438D02*
X191513333Y-83550057D01*
X192084762Y-83883390D02*
X191989524Y-83835771D01*
X191989524Y-83835771D02*
X191941905Y-83788152D01*
X191941905Y-83788152D02*
X191894286Y-83692914D01*
X191894286Y-83692914D02*
X191894286Y-83645295D01*
X191894286Y-83645295D02*
X191941905Y-83550057D01*
X191941905Y-83550057D02*
X191989524Y-83502438D01*
X191989524Y-83502438D02*
X192084762Y-83454819D01*
X192084762Y-83454819D02*
X192275238Y-83454819D01*
X192275238Y-83454819D02*
X192370476Y-83502438D01*
X192370476Y-83502438D02*
X192418095Y-83550057D01*
X192418095Y-83550057D02*
X192465714Y-83645295D01*
X192465714Y-83645295D02*
X192465714Y-83692914D01*
X192465714Y-83692914D02*
X192418095Y-83788152D01*
X192418095Y-83788152D02*
X192370476Y-83835771D01*
X192370476Y-83835771D02*
X192275238Y-83883390D01*
X192275238Y-83883390D02*
X192084762Y-83883390D01*
X192084762Y-83883390D02*
X191989524Y-83931009D01*
X191989524Y-83931009D02*
X191941905Y-83978628D01*
X191941905Y-83978628D02*
X191894286Y-84073866D01*
X191894286Y-84073866D02*
X191894286Y-84264342D01*
X191894286Y-84264342D02*
X191941905Y-84359580D01*
X191941905Y-84359580D02*
X191989524Y-84407200D01*
X191989524Y-84407200D02*
X192084762Y-84454819D01*
X192084762Y-84454819D02*
X192275238Y-84454819D01*
X192275238Y-84454819D02*
X192370476Y-84407200D01*
X192370476Y-84407200D02*
X192418095Y-84359580D01*
X192418095Y-84359580D02*
X192465714Y-84264342D01*
X192465714Y-84264342D02*
X192465714Y-84073866D01*
X192465714Y-84073866D02*
X192418095Y-83978628D01*
X192418095Y-83978628D02*
X192370476Y-83931009D01*
X192370476Y-83931009D02*
X192275238Y-83883390D01*
D12*
X197766666Y-146513842D02*
X197948095Y-146574318D01*
X197948095Y-146574318D02*
X198250476Y-146574318D01*
X198250476Y-146574318D02*
X198371428Y-146513842D01*
X198371428Y-146513842D02*
X198431904Y-146453365D01*
X198431904Y-146453365D02*
X198492381Y-146332413D01*
X198492381Y-146332413D02*
X198492381Y-146211461D01*
X198492381Y-146211461D02*
X198431904Y-146090508D01*
X198431904Y-146090508D02*
X198371428Y-146030032D01*
X198371428Y-146030032D02*
X198250476Y-145969556D01*
X198250476Y-145969556D02*
X198008571Y-145909080D01*
X198008571Y-145909080D02*
X197887619Y-145848603D01*
X197887619Y-145848603D02*
X197827142Y-145788127D01*
X197827142Y-145788127D02*
X197766666Y-145667175D01*
X197766666Y-145667175D02*
X197766666Y-145546222D01*
X197766666Y-145546222D02*
X197827142Y-145425270D01*
X197827142Y-145425270D02*
X197887619Y-145364794D01*
X197887619Y-145364794D02*
X198008571Y-145304318D01*
X198008571Y-145304318D02*
X198310952Y-145304318D01*
X198310952Y-145304318D02*
X198492381Y-145364794D01*
X198915714Y-145304318D02*
X199218095Y-146574318D01*
X199218095Y-146574318D02*
X199460000Y-145667175D01*
X199460000Y-145667175D02*
X199701905Y-146574318D01*
X199701905Y-146574318D02*
X200004286Y-145304318D01*
X200427619Y-145425270D02*
X200488095Y-145364794D01*
X200488095Y-145364794D02*
X200609048Y-145304318D01*
X200609048Y-145304318D02*
X200911429Y-145304318D01*
X200911429Y-145304318D02*
X201032381Y-145364794D01*
X201032381Y-145364794D02*
X201092857Y-145425270D01*
X201092857Y-145425270D02*
X201153334Y-145546222D01*
X201153334Y-145546222D02*
X201153334Y-145667175D01*
X201153334Y-145667175D02*
X201092857Y-145848603D01*
X201092857Y-145848603D02*
X200367143Y-146574318D01*
X200367143Y-146574318D02*
X201153334Y-146574318D01*
D11*
X191857142Y-131454819D02*
X191523809Y-130978628D01*
X191285714Y-131454819D02*
X191285714Y-130454819D01*
X191285714Y-130454819D02*
X191666666Y-130454819D01*
X191666666Y-130454819D02*
X191761904Y-130502438D01*
X191761904Y-130502438D02*
X191809523Y-130550057D01*
X191809523Y-130550057D02*
X191857142Y-130645295D01*
X191857142Y-130645295D02*
X191857142Y-130788152D01*
X191857142Y-130788152D02*
X191809523Y-130883390D01*
X191809523Y-130883390D02*
X191761904Y-130931009D01*
X191761904Y-130931009D02*
X191666666Y-130978628D01*
X191666666Y-130978628D02*
X191285714Y-130978628D01*
X192809523Y-131454819D02*
X192238095Y-131454819D01*
X192523809Y-131454819D02*
X192523809Y-130454819D01*
X192523809Y-130454819D02*
X192428571Y-130597676D01*
X192428571Y-130597676D02*
X192333333Y-130692914D01*
X192333333Y-130692914D02*
X192238095Y-130740533D01*
X193666666Y-130454819D02*
X193476190Y-130454819D01*
X193476190Y-130454819D02*
X193380952Y-130502438D01*
X193380952Y-130502438D02*
X193333333Y-130550057D01*
X193333333Y-130550057D02*
X193238095Y-130692914D01*
X193238095Y-130692914D02*
X193190476Y-130883390D01*
X193190476Y-130883390D02*
X193190476Y-131264342D01*
X193190476Y-131264342D02*
X193238095Y-131359580D01*
X193238095Y-131359580D02*
X193285714Y-131407200D01*
X193285714Y-131407200D02*
X193380952Y-131454819D01*
X193380952Y-131454819D02*
X193571428Y-131454819D01*
X193571428Y-131454819D02*
X193666666Y-131407200D01*
X193666666Y-131407200D02*
X193714285Y-131359580D01*
X193714285Y-131359580D02*
X193761904Y-131264342D01*
X193761904Y-131264342D02*
X193761904Y-131026247D01*
X193761904Y-131026247D02*
X193714285Y-130931009D01*
X193714285Y-130931009D02*
X193666666Y-130883390D01*
X193666666Y-130883390D02*
X193571428Y-130835771D01*
X193571428Y-130835771D02*
X193380952Y-130835771D01*
X193380952Y-130835771D02*
X193285714Y-130883390D01*
X193285714Y-130883390D02*
X193238095Y-130931009D01*
X193238095Y-130931009D02*
X193190476Y-131026247D01*
X187857142Y-128359580D02*
X187809523Y-128407200D01*
X187809523Y-128407200D02*
X187666666Y-128454819D01*
X187666666Y-128454819D02*
X187571428Y-128454819D01*
X187571428Y-128454819D02*
X187428571Y-128407200D01*
X187428571Y-128407200D02*
X187333333Y-128311961D01*
X187333333Y-128311961D02*
X187285714Y-128216723D01*
X187285714Y-128216723D02*
X187238095Y-128026247D01*
X187238095Y-128026247D02*
X187238095Y-127883390D01*
X187238095Y-127883390D02*
X187285714Y-127692914D01*
X187285714Y-127692914D02*
X187333333Y-127597676D01*
X187333333Y-127597676D02*
X187428571Y-127502438D01*
X187428571Y-127502438D02*
X187571428Y-127454819D01*
X187571428Y-127454819D02*
X187666666Y-127454819D01*
X187666666Y-127454819D02*
X187809523Y-127502438D01*
X187809523Y-127502438D02*
X187857142Y-127550057D01*
X188809523Y-128454819D02*
X188238095Y-128454819D01*
X188523809Y-128454819D02*
X188523809Y-127454819D01*
X188523809Y-127454819D02*
X188428571Y-127597676D01*
X188428571Y-127597676D02*
X188333333Y-127692914D01*
X188333333Y-127692914D02*
X188238095Y-127740533D01*
X189380952Y-127883390D02*
X189285714Y-127835771D01*
X189285714Y-127835771D02*
X189238095Y-127788152D01*
X189238095Y-127788152D02*
X189190476Y-127692914D01*
X189190476Y-127692914D02*
X189190476Y-127645295D01*
X189190476Y-127645295D02*
X189238095Y-127550057D01*
X189238095Y-127550057D02*
X189285714Y-127502438D01*
X189285714Y-127502438D02*
X189380952Y-127454819D01*
X189380952Y-127454819D02*
X189571428Y-127454819D01*
X189571428Y-127454819D02*
X189666666Y-127502438D01*
X189666666Y-127502438D02*
X189714285Y-127550057D01*
X189714285Y-127550057D02*
X189761904Y-127645295D01*
X189761904Y-127645295D02*
X189761904Y-127692914D01*
X189761904Y-127692914D02*
X189714285Y-127788152D01*
X189714285Y-127788152D02*
X189666666Y-127835771D01*
X189666666Y-127835771D02*
X189571428Y-127883390D01*
X189571428Y-127883390D02*
X189380952Y-127883390D01*
X189380952Y-127883390D02*
X189285714Y-127931009D01*
X189285714Y-127931009D02*
X189238095Y-127978628D01*
X189238095Y-127978628D02*
X189190476Y-128073866D01*
X189190476Y-128073866D02*
X189190476Y-128264342D01*
X189190476Y-128264342D02*
X189238095Y-128359580D01*
X189238095Y-128359580D02*
X189285714Y-128407200D01*
X189285714Y-128407200D02*
X189380952Y-128454819D01*
X189380952Y-128454819D02*
X189571428Y-128454819D01*
X189571428Y-128454819D02*
X189666666Y-128407200D01*
X189666666Y-128407200D02*
X189714285Y-128359580D01*
X189714285Y-128359580D02*
X189761904Y-128264342D01*
X189761904Y-128264342D02*
X189761904Y-128073866D01*
X189761904Y-128073866D02*
X189714285Y-127978628D01*
X189714285Y-127978628D02*
X189666666Y-127931009D01*
X189666666Y-127931009D02*
X189571428Y-127883390D01*
X191857142Y-128359580D02*
X191809523Y-128407200D01*
X191809523Y-128407200D02*
X191666666Y-128454819D01*
X191666666Y-128454819D02*
X191571428Y-128454819D01*
X191571428Y-128454819D02*
X191428571Y-128407200D01*
X191428571Y-128407200D02*
X191333333Y-128311961D01*
X191333333Y-128311961D02*
X191285714Y-128216723D01*
X191285714Y-128216723D02*
X191238095Y-128026247D01*
X191238095Y-128026247D02*
X191238095Y-127883390D01*
X191238095Y-127883390D02*
X191285714Y-127692914D01*
X191285714Y-127692914D02*
X191333333Y-127597676D01*
X191333333Y-127597676D02*
X191428571Y-127502438D01*
X191428571Y-127502438D02*
X191571428Y-127454819D01*
X191571428Y-127454819D02*
X191666666Y-127454819D01*
X191666666Y-127454819D02*
X191809523Y-127502438D01*
X191809523Y-127502438D02*
X191857142Y-127550057D01*
X192809523Y-128454819D02*
X192238095Y-128454819D01*
X192523809Y-128454819D02*
X192523809Y-127454819D01*
X192523809Y-127454819D02*
X192428571Y-127597676D01*
X192428571Y-127597676D02*
X192333333Y-127692914D01*
X192333333Y-127692914D02*
X192238095Y-127740533D01*
X193285714Y-128454819D02*
X193476190Y-128454819D01*
X193476190Y-128454819D02*
X193571428Y-128407200D01*
X193571428Y-128407200D02*
X193619047Y-128359580D01*
X193619047Y-128359580D02*
X193714285Y-128216723D01*
X193714285Y-128216723D02*
X193761904Y-128026247D01*
X193761904Y-128026247D02*
X193761904Y-127645295D01*
X193761904Y-127645295D02*
X193714285Y-127550057D01*
X193714285Y-127550057D02*
X193666666Y-127502438D01*
X193666666Y-127502438D02*
X193571428Y-127454819D01*
X193571428Y-127454819D02*
X193380952Y-127454819D01*
X193380952Y-127454819D02*
X193285714Y-127502438D01*
X193285714Y-127502438D02*
X193238095Y-127550057D01*
X193238095Y-127550057D02*
X193190476Y-127645295D01*
X193190476Y-127645295D02*
X193190476Y-127883390D01*
X193190476Y-127883390D02*
X193238095Y-127978628D01*
X193238095Y-127978628D02*
X193285714Y-128026247D01*
X193285714Y-128026247D02*
X193380952Y-128073866D01*
X193380952Y-128073866D02*
X193571428Y-128073866D01*
X193571428Y-128073866D02*
X193666666Y-128026247D01*
X193666666Y-128026247D02*
X193714285Y-127978628D01*
X193714285Y-127978628D02*
X193761904Y-127883390D01*
X214975933Y-99050366D02*
X214975933Y-99637652D01*
X214975933Y-99637652D02*
X214936780Y-99755109D01*
X214936780Y-99755109D02*
X214858476Y-99833414D01*
X214858476Y-99833414D02*
X214741018Y-99872566D01*
X214741018Y-99872566D02*
X214662714Y-99872566D01*
X215289152Y-99050366D02*
X215837285Y-99050366D01*
X215837285Y-99050366D02*
X215484914Y-99872566D01*
X186359580Y-104465935D02*
X186407200Y-104513554D01*
X186407200Y-104513554D02*
X186454819Y-104656411D01*
X186454819Y-104656411D02*
X186454819Y-104751649D01*
X186454819Y-104751649D02*
X186407200Y-104894506D01*
X186407200Y-104894506D02*
X186311961Y-104989744D01*
X186311961Y-104989744D02*
X186216723Y-105037363D01*
X186216723Y-105037363D02*
X186026247Y-105084982D01*
X186026247Y-105084982D02*
X185883390Y-105084982D01*
X185883390Y-105084982D02*
X185692914Y-105037363D01*
X185692914Y-105037363D02*
X185597676Y-104989744D01*
X185597676Y-104989744D02*
X185502438Y-104894506D01*
X185502438Y-104894506D02*
X185454819Y-104751649D01*
X185454819Y-104751649D02*
X185454819Y-104656411D01*
X185454819Y-104656411D02*
X185502438Y-104513554D01*
X185502438Y-104513554D02*
X185550057Y-104465935D01*
X186454819Y-103513554D02*
X186454819Y-104084982D01*
X186454819Y-103799268D02*
X185454819Y-103799268D01*
X185454819Y-103799268D02*
X185597676Y-103894506D01*
X185597676Y-103894506D02*
X185692914Y-103989744D01*
X185692914Y-103989744D02*
X185740533Y-104084982D01*
X185550057Y-103132601D02*
X185502438Y-103084982D01*
X185502438Y-103084982D02*
X185454819Y-102989744D01*
X185454819Y-102989744D02*
X185454819Y-102751649D01*
X185454819Y-102751649D02*
X185502438Y-102656411D01*
X185502438Y-102656411D02*
X185550057Y-102608792D01*
X185550057Y-102608792D02*
X185645295Y-102561173D01*
X185645295Y-102561173D02*
X185740533Y-102561173D01*
X185740533Y-102561173D02*
X185883390Y-102608792D01*
X185883390Y-102608792D02*
X186454819Y-103180220D01*
X186454819Y-103180220D02*
X186454819Y-102561173D01*
X197357142Y-103359580D02*
X197309523Y-103407200D01*
X197309523Y-103407200D02*
X197166666Y-103454819D01*
X197166666Y-103454819D02*
X197071428Y-103454819D01*
X197071428Y-103454819D02*
X196928571Y-103407200D01*
X196928571Y-103407200D02*
X196833333Y-103311961D01*
X196833333Y-103311961D02*
X196785714Y-103216723D01*
X196785714Y-103216723D02*
X196738095Y-103026247D01*
X196738095Y-103026247D02*
X196738095Y-102883390D01*
X196738095Y-102883390D02*
X196785714Y-102692914D01*
X196785714Y-102692914D02*
X196833333Y-102597676D01*
X196833333Y-102597676D02*
X196928571Y-102502438D01*
X196928571Y-102502438D02*
X197071428Y-102454819D01*
X197071428Y-102454819D02*
X197166666Y-102454819D01*
X197166666Y-102454819D02*
X197309523Y-102502438D01*
X197309523Y-102502438D02*
X197357142Y-102550057D01*
X198309523Y-103454819D02*
X197738095Y-103454819D01*
X198023809Y-103454819D02*
X198023809Y-102454819D01*
X198023809Y-102454819D02*
X197928571Y-102597676D01*
X197928571Y-102597676D02*
X197833333Y-102692914D01*
X197833333Y-102692914D02*
X197738095Y-102740533D01*
X199166666Y-102788152D02*
X199166666Y-103454819D01*
X198928571Y-102407200D02*
X198690476Y-103121485D01*
X198690476Y-103121485D02*
X199309523Y-103121485D01*
X193857142Y-124359580D02*
X193809523Y-124407200D01*
X193809523Y-124407200D02*
X193666666Y-124454819D01*
X193666666Y-124454819D02*
X193571428Y-124454819D01*
X193571428Y-124454819D02*
X193428571Y-124407200D01*
X193428571Y-124407200D02*
X193333333Y-124311961D01*
X193333333Y-124311961D02*
X193285714Y-124216723D01*
X193285714Y-124216723D02*
X193238095Y-124026247D01*
X193238095Y-124026247D02*
X193238095Y-123883390D01*
X193238095Y-123883390D02*
X193285714Y-123692914D01*
X193285714Y-123692914D02*
X193333333Y-123597676D01*
X193333333Y-123597676D02*
X193428571Y-123502438D01*
X193428571Y-123502438D02*
X193571428Y-123454819D01*
X193571428Y-123454819D02*
X193666666Y-123454819D01*
X193666666Y-123454819D02*
X193809523Y-123502438D01*
X193809523Y-123502438D02*
X193857142Y-123550057D01*
X194809523Y-124454819D02*
X194238095Y-124454819D01*
X194523809Y-124454819D02*
X194523809Y-123454819D01*
X194523809Y-123454819D02*
X194428571Y-123597676D01*
X194428571Y-123597676D02*
X194333333Y-123692914D01*
X194333333Y-123692914D02*
X194238095Y-123740533D01*
X195142857Y-123454819D02*
X195809523Y-123454819D01*
X195809523Y-123454819D02*
X195380952Y-124454819D01*
X198988095Y-108454819D02*
X198988095Y-109264342D01*
X198988095Y-109264342D02*
X199035714Y-109359580D01*
X199035714Y-109359580D02*
X199083333Y-109407200D01*
X199083333Y-109407200D02*
X199178571Y-109454819D01*
X199178571Y-109454819D02*
X199369047Y-109454819D01*
X199369047Y-109454819D02*
X199464285Y-109407200D01*
X199464285Y-109407200D02*
X199511904Y-109359580D01*
X199511904Y-109359580D02*
X199559523Y-109264342D01*
X199559523Y-109264342D02*
X199559523Y-108454819D01*
X200464285Y-108454819D02*
X200273809Y-108454819D01*
X200273809Y-108454819D02*
X200178571Y-108502438D01*
X200178571Y-108502438D02*
X200130952Y-108550057D01*
X200130952Y-108550057D02*
X200035714Y-108692914D01*
X200035714Y-108692914D02*
X199988095Y-108883390D01*
X199988095Y-108883390D02*
X199988095Y-109264342D01*
X199988095Y-109264342D02*
X200035714Y-109359580D01*
X200035714Y-109359580D02*
X200083333Y-109407200D01*
X200083333Y-109407200D02*
X200178571Y-109454819D01*
X200178571Y-109454819D02*
X200369047Y-109454819D01*
X200369047Y-109454819D02*
X200464285Y-109407200D01*
X200464285Y-109407200D02*
X200511904Y-109359580D01*
X200511904Y-109359580D02*
X200559523Y-109264342D01*
X200559523Y-109264342D02*
X200559523Y-109026247D01*
X200559523Y-109026247D02*
X200511904Y-108931009D01*
X200511904Y-108931009D02*
X200464285Y-108883390D01*
X200464285Y-108883390D02*
X200369047Y-108835771D01*
X200369047Y-108835771D02*
X200178571Y-108835771D01*
X200178571Y-108835771D02*
X200083333Y-108883390D01*
X200083333Y-108883390D02*
X200035714Y-108931009D01*
X200035714Y-108931009D02*
X199988095Y-109026247D01*
X197857142Y-128359580D02*
X197809523Y-128407200D01*
X197809523Y-128407200D02*
X197666666Y-128454819D01*
X197666666Y-128454819D02*
X197571428Y-128454819D01*
X197571428Y-128454819D02*
X197428571Y-128407200D01*
X197428571Y-128407200D02*
X197333333Y-128311961D01*
X197333333Y-128311961D02*
X197285714Y-128216723D01*
X197285714Y-128216723D02*
X197238095Y-128026247D01*
X197238095Y-128026247D02*
X197238095Y-127883390D01*
X197238095Y-127883390D02*
X197285714Y-127692914D01*
X197285714Y-127692914D02*
X197333333Y-127597676D01*
X197333333Y-127597676D02*
X197428571Y-127502438D01*
X197428571Y-127502438D02*
X197571428Y-127454819D01*
X197571428Y-127454819D02*
X197666666Y-127454819D01*
X197666666Y-127454819D02*
X197809523Y-127502438D01*
X197809523Y-127502438D02*
X197857142Y-127550057D01*
X198238095Y-127550057D02*
X198285714Y-127502438D01*
X198285714Y-127502438D02*
X198380952Y-127454819D01*
X198380952Y-127454819D02*
X198619047Y-127454819D01*
X198619047Y-127454819D02*
X198714285Y-127502438D01*
X198714285Y-127502438D02*
X198761904Y-127550057D01*
X198761904Y-127550057D02*
X198809523Y-127645295D01*
X198809523Y-127645295D02*
X198809523Y-127740533D01*
X198809523Y-127740533D02*
X198761904Y-127883390D01*
X198761904Y-127883390D02*
X198190476Y-128454819D01*
X198190476Y-128454819D02*
X198809523Y-128454819D01*
X199428571Y-127454819D02*
X199523809Y-127454819D01*
X199523809Y-127454819D02*
X199619047Y-127502438D01*
X199619047Y-127502438D02*
X199666666Y-127550057D01*
X199666666Y-127550057D02*
X199714285Y-127645295D01*
X199714285Y-127645295D02*
X199761904Y-127835771D01*
X199761904Y-127835771D02*
X199761904Y-128073866D01*
X199761904Y-128073866D02*
X199714285Y-128264342D01*
X199714285Y-128264342D02*
X199666666Y-128359580D01*
X199666666Y-128359580D02*
X199619047Y-128407200D01*
X199619047Y-128407200D02*
X199523809Y-128454819D01*
X199523809Y-128454819D02*
X199428571Y-128454819D01*
X199428571Y-128454819D02*
X199333333Y-128407200D01*
X199333333Y-128407200D02*
X199285714Y-128359580D01*
X199285714Y-128359580D02*
X199238095Y-128264342D01*
X199238095Y-128264342D02*
X199190476Y-128073866D01*
X199190476Y-128073866D02*
X199190476Y-127835771D01*
X199190476Y-127835771D02*
X199238095Y-127645295D01*
X199238095Y-127645295D02*
X199285714Y-127550057D01*
X199285714Y-127550057D02*
X199333333Y-127502438D01*
X199333333Y-127502438D02*
X199428571Y-127454819D01*
X205725933Y-99050366D02*
X205725933Y-99637652D01*
X205725933Y-99637652D02*
X205686780Y-99755109D01*
X205686780Y-99755109D02*
X205608476Y-99833414D01*
X205608476Y-99833414D02*
X205491018Y-99872566D01*
X205491018Y-99872566D02*
X205412714Y-99872566D01*
X206078304Y-99128671D02*
X206117456Y-99089518D01*
X206117456Y-99089518D02*
X206195761Y-99050366D01*
X206195761Y-99050366D02*
X206391523Y-99050366D01*
X206391523Y-99050366D02*
X206469828Y-99089518D01*
X206469828Y-99089518D02*
X206508980Y-99128671D01*
X206508980Y-99128671D02*
X206548133Y-99206975D01*
X206548133Y-99206975D02*
X206548133Y-99285280D01*
X206548133Y-99285280D02*
X206508980Y-99402737D01*
X206508980Y-99402737D02*
X206039152Y-99872566D01*
X206039152Y-99872566D02*
X206548133Y-99872566D01*
X185872566Y-114528557D02*
X185481042Y-114802624D01*
X185872566Y-114998386D02*
X185050366Y-114998386D01*
X185050366Y-114998386D02*
X185050366Y-114685167D01*
X185050366Y-114685167D02*
X185089518Y-114606862D01*
X185089518Y-114606862D02*
X185128671Y-114567709D01*
X185128671Y-114567709D02*
X185206975Y-114528557D01*
X185206975Y-114528557D02*
X185324433Y-114528557D01*
X185324433Y-114528557D02*
X185402737Y-114567709D01*
X185402737Y-114567709D02*
X185441890Y-114606862D01*
X185441890Y-114606862D02*
X185481042Y-114685167D01*
X185481042Y-114685167D02*
X185481042Y-114998386D01*
X185872566Y-113745509D02*
X185872566Y-114215338D01*
X185872566Y-113980424D02*
X185050366Y-113980424D01*
X185050366Y-113980424D02*
X185167823Y-114058728D01*
X185167823Y-114058728D02*
X185246128Y-114137033D01*
X185246128Y-114137033D02*
X185285280Y-114215338D01*
X185050366Y-113236528D02*
X185050366Y-113158223D01*
X185050366Y-113158223D02*
X185089518Y-113079919D01*
X185089518Y-113079919D02*
X185128671Y-113040766D01*
X185128671Y-113040766D02*
X185206975Y-113001614D01*
X185206975Y-113001614D02*
X185363585Y-112962461D01*
X185363585Y-112962461D02*
X185559347Y-112962461D01*
X185559347Y-112962461D02*
X185715956Y-113001614D01*
X185715956Y-113001614D02*
X185794261Y-113040766D01*
X185794261Y-113040766D02*
X185833414Y-113079919D01*
X185833414Y-113079919D02*
X185872566Y-113158223D01*
X185872566Y-113158223D02*
X185872566Y-113236528D01*
X185872566Y-113236528D02*
X185833414Y-113314833D01*
X185833414Y-113314833D02*
X185794261Y-113353985D01*
X185794261Y-113353985D02*
X185715956Y-113393138D01*
X185715956Y-113393138D02*
X185559347Y-113432290D01*
X185559347Y-113432290D02*
X185363585Y-113432290D01*
X185363585Y-113432290D02*
X185206975Y-113393138D01*
X185206975Y-113393138D02*
X185128671Y-113353985D01*
X185128671Y-113353985D02*
X185089518Y-113314833D01*
X185089518Y-113314833D02*
X185050366Y-113236528D01*
X168454819Y-125261904D02*
X169264342Y-125261904D01*
X169264342Y-125261904D02*
X169359580Y-125214285D01*
X169359580Y-125214285D02*
X169407200Y-125166666D01*
X169407200Y-125166666D02*
X169454819Y-125071428D01*
X169454819Y-125071428D02*
X169454819Y-124880952D01*
X169454819Y-124880952D02*
X169407200Y-124785714D01*
X169407200Y-124785714D02*
X169359580Y-124738095D01*
X169359580Y-124738095D02*
X169264342Y-124690476D01*
X169264342Y-124690476D02*
X168454819Y-124690476D01*
X168454819Y-124309523D02*
X168454819Y-123690476D01*
X168454819Y-123690476D02*
X168835771Y-124023809D01*
X168835771Y-124023809D02*
X168835771Y-123880952D01*
X168835771Y-123880952D02*
X168883390Y-123785714D01*
X168883390Y-123785714D02*
X168931009Y-123738095D01*
X168931009Y-123738095D02*
X169026247Y-123690476D01*
X169026247Y-123690476D02*
X169264342Y-123690476D01*
X169264342Y-123690476D02*
X169359580Y-123738095D01*
X169359580Y-123738095D02*
X169407200Y-123785714D01*
X169407200Y-123785714D02*
X169454819Y-123880952D01*
X169454819Y-123880952D02*
X169454819Y-124166666D01*
X169454819Y-124166666D02*
X169407200Y-124261904D01*
X169407200Y-124261904D02*
X169359580Y-124309523D01*
X197857142Y-131604819D02*
X197523809Y-131128628D01*
X197285714Y-131604819D02*
X197285714Y-130604819D01*
X197285714Y-130604819D02*
X197666666Y-130604819D01*
X197666666Y-130604819D02*
X197761904Y-130652438D01*
X197761904Y-130652438D02*
X197809523Y-130700057D01*
X197809523Y-130700057D02*
X197857142Y-130795295D01*
X197857142Y-130795295D02*
X197857142Y-130938152D01*
X197857142Y-130938152D02*
X197809523Y-131033390D01*
X197809523Y-131033390D02*
X197761904Y-131081009D01*
X197761904Y-131081009D02*
X197666666Y-131128628D01*
X197666666Y-131128628D02*
X197285714Y-131128628D01*
X198809523Y-131604819D02*
X198238095Y-131604819D01*
X198523809Y-131604819D02*
X198523809Y-130604819D01*
X198523809Y-130604819D02*
X198428571Y-130747676D01*
X198428571Y-130747676D02*
X198333333Y-130842914D01*
X198333333Y-130842914D02*
X198238095Y-130890533D01*
X199142857Y-130604819D02*
X199809523Y-130604819D01*
X199809523Y-130604819D02*
X199380952Y-131604819D01*
X177833333Y-101954819D02*
X177500000Y-101478628D01*
X177261905Y-101954819D02*
X177261905Y-100954819D01*
X177261905Y-100954819D02*
X177642857Y-100954819D01*
X177642857Y-100954819D02*
X177738095Y-101002438D01*
X177738095Y-101002438D02*
X177785714Y-101050057D01*
X177785714Y-101050057D02*
X177833333Y-101145295D01*
X177833333Y-101145295D02*
X177833333Y-101288152D01*
X177833333Y-101288152D02*
X177785714Y-101383390D01*
X177785714Y-101383390D02*
X177738095Y-101431009D01*
X177738095Y-101431009D02*
X177642857Y-101478628D01*
X177642857Y-101478628D02*
X177261905Y-101478628D01*
X178404762Y-101383390D02*
X178309524Y-101335771D01*
X178309524Y-101335771D02*
X178261905Y-101288152D01*
X178261905Y-101288152D02*
X178214286Y-101192914D01*
X178214286Y-101192914D02*
X178214286Y-101145295D01*
X178214286Y-101145295D02*
X178261905Y-101050057D01*
X178261905Y-101050057D02*
X178309524Y-101002438D01*
X178309524Y-101002438D02*
X178404762Y-100954819D01*
X178404762Y-100954819D02*
X178595238Y-100954819D01*
X178595238Y-100954819D02*
X178690476Y-101002438D01*
X178690476Y-101002438D02*
X178738095Y-101050057D01*
X178738095Y-101050057D02*
X178785714Y-101145295D01*
X178785714Y-101145295D02*
X178785714Y-101192914D01*
X178785714Y-101192914D02*
X178738095Y-101288152D01*
X178738095Y-101288152D02*
X178690476Y-101335771D01*
X178690476Y-101335771D02*
X178595238Y-101383390D01*
X178595238Y-101383390D02*
X178404762Y-101383390D01*
X178404762Y-101383390D02*
X178309524Y-101431009D01*
X178309524Y-101431009D02*
X178261905Y-101478628D01*
X178261905Y-101478628D02*
X178214286Y-101573866D01*
X178214286Y-101573866D02*
X178214286Y-101764342D01*
X178214286Y-101764342D02*
X178261905Y-101859580D01*
X178261905Y-101859580D02*
X178309524Y-101907200D01*
X178309524Y-101907200D02*
X178404762Y-101954819D01*
X178404762Y-101954819D02*
X178595238Y-101954819D01*
X178595238Y-101954819D02*
X178690476Y-101907200D01*
X178690476Y-101907200D02*
X178738095Y-101859580D01*
X178738095Y-101859580D02*
X178785714Y-101764342D01*
X178785714Y-101764342D02*
X178785714Y-101573866D01*
X178785714Y-101573866D02*
X178738095Y-101478628D01*
X178738095Y-101478628D02*
X178690476Y-101431009D01*
X178690476Y-101431009D02*
X178595238Y-101383390D01*
X179166666Y-145454819D02*
X179166666Y-146169104D01*
X179166666Y-146169104D02*
X179119047Y-146311961D01*
X179119047Y-146311961D02*
X179023809Y-146407200D01*
X179023809Y-146407200D02*
X178880952Y-146454819D01*
X178880952Y-146454819D02*
X178785714Y-146454819D01*
X180119047Y-145454819D02*
X179642857Y-145454819D01*
X179642857Y-145454819D02*
X179595238Y-145931009D01*
X179595238Y-145931009D02*
X179642857Y-145883390D01*
X179642857Y-145883390D02*
X179738095Y-145835771D01*
X179738095Y-145835771D02*
X179976190Y-145835771D01*
X179976190Y-145835771D02*
X180071428Y-145883390D01*
X180071428Y-145883390D02*
X180119047Y-145931009D01*
X180119047Y-145931009D02*
X180166666Y-146026247D01*
X180166666Y-146026247D02*
X180166666Y-146264342D01*
X180166666Y-146264342D02*
X180119047Y-146359580D01*
X180119047Y-146359580D02*
X180071428Y-146407200D01*
X180071428Y-146407200D02*
X179976190Y-146454819D01*
X179976190Y-146454819D02*
X179738095Y-146454819D01*
X179738095Y-146454819D02*
X179642857Y-146407200D01*
X179642857Y-146407200D02*
X179595238Y-146359580D01*
X177238095Y-110454819D02*
X177238095Y-111264342D01*
X177238095Y-111264342D02*
X177285714Y-111359580D01*
X177285714Y-111359580D02*
X177333333Y-111407200D01*
X177333333Y-111407200D02*
X177428571Y-111454819D01*
X177428571Y-111454819D02*
X177619047Y-111454819D01*
X177619047Y-111454819D02*
X177714285Y-111407200D01*
X177714285Y-111407200D02*
X177761904Y-111359580D01*
X177761904Y-111359580D02*
X177809523Y-111264342D01*
X177809523Y-111264342D02*
X177809523Y-110454819D01*
X178238095Y-110550057D02*
X178285714Y-110502438D01*
X178285714Y-110502438D02*
X178380952Y-110454819D01*
X178380952Y-110454819D02*
X178619047Y-110454819D01*
X178619047Y-110454819D02*
X178714285Y-110502438D01*
X178714285Y-110502438D02*
X178761904Y-110550057D01*
X178761904Y-110550057D02*
X178809523Y-110645295D01*
X178809523Y-110645295D02*
X178809523Y-110740533D01*
X178809523Y-110740533D02*
X178761904Y-110883390D01*
X178761904Y-110883390D02*
X178190476Y-111454819D01*
X178190476Y-111454819D02*
X178809523Y-111454819D01*
X188471442Y-131372566D02*
X188197375Y-130981042D01*
X188001613Y-131372566D02*
X188001613Y-130550366D01*
X188001613Y-130550366D02*
X188314832Y-130550366D01*
X188314832Y-130550366D02*
X188393137Y-130589518D01*
X188393137Y-130589518D02*
X188432290Y-130628671D01*
X188432290Y-130628671D02*
X188471442Y-130706975D01*
X188471442Y-130706975D02*
X188471442Y-130824433D01*
X188471442Y-130824433D02*
X188432290Y-130902737D01*
X188432290Y-130902737D02*
X188393137Y-130941890D01*
X188393137Y-130941890D02*
X188314832Y-130981042D01*
X188314832Y-130981042D02*
X188001613Y-130981042D01*
X189254490Y-131372566D02*
X188784661Y-131372566D01*
X189019575Y-131372566D02*
X189019575Y-130550366D01*
X189019575Y-130550366D02*
X188941271Y-130667823D01*
X188941271Y-130667823D02*
X188862966Y-130746128D01*
X188862966Y-130746128D02*
X188784661Y-130785280D01*
X189998385Y-130550366D02*
X189606861Y-130550366D01*
X189606861Y-130550366D02*
X189567709Y-130941890D01*
X189567709Y-130941890D02*
X189606861Y-130902737D01*
X189606861Y-130902737D02*
X189685166Y-130863585D01*
X189685166Y-130863585D02*
X189880928Y-130863585D01*
X189880928Y-130863585D02*
X189959233Y-130902737D01*
X189959233Y-130902737D02*
X189998385Y-130941890D01*
X189998385Y-130941890D02*
X190037538Y-131020194D01*
X190037538Y-131020194D02*
X190037538Y-131215956D01*
X190037538Y-131215956D02*
X189998385Y-131294261D01*
X189998385Y-131294261D02*
X189959233Y-131333414D01*
X189959233Y-131333414D02*
X189880928Y-131372566D01*
X189880928Y-131372566D02*
X189685166Y-131372566D01*
X189685166Y-131372566D02*
X189606861Y-131333414D01*
X189606861Y-131333414D02*
X189567709Y-131294261D01*
X214975933Y-121550366D02*
X214975933Y-122137652D01*
X214975933Y-122137652D02*
X214936780Y-122255109D01*
X214936780Y-122255109D02*
X214858476Y-122333414D01*
X214858476Y-122333414D02*
X214741018Y-122372566D01*
X214741018Y-122372566D02*
X214662714Y-122372566D01*
X215484914Y-121902737D02*
X215406609Y-121863585D01*
X215406609Y-121863585D02*
X215367456Y-121824433D01*
X215367456Y-121824433D02*
X215328304Y-121746128D01*
X215328304Y-121746128D02*
X215328304Y-121706975D01*
X215328304Y-121706975D02*
X215367456Y-121628671D01*
X215367456Y-121628671D02*
X215406609Y-121589518D01*
X215406609Y-121589518D02*
X215484914Y-121550366D01*
X215484914Y-121550366D02*
X215641523Y-121550366D01*
X215641523Y-121550366D02*
X215719828Y-121589518D01*
X215719828Y-121589518D02*
X215758980Y-121628671D01*
X215758980Y-121628671D02*
X215798133Y-121706975D01*
X215798133Y-121706975D02*
X215798133Y-121746128D01*
X215798133Y-121746128D02*
X215758980Y-121824433D01*
X215758980Y-121824433D02*
X215719828Y-121863585D01*
X215719828Y-121863585D02*
X215641523Y-121902737D01*
X215641523Y-121902737D02*
X215484914Y-121902737D01*
X215484914Y-121902737D02*
X215406609Y-121941890D01*
X215406609Y-121941890D02*
X215367456Y-121981042D01*
X215367456Y-121981042D02*
X215328304Y-122059347D01*
X215328304Y-122059347D02*
X215328304Y-122215956D01*
X215328304Y-122215956D02*
X215367456Y-122294261D01*
X215367456Y-122294261D02*
X215406609Y-122333414D01*
X215406609Y-122333414D02*
X215484914Y-122372566D01*
X215484914Y-122372566D02*
X215641523Y-122372566D01*
X215641523Y-122372566D02*
X215719828Y-122333414D01*
X215719828Y-122333414D02*
X215758980Y-122294261D01*
X215758980Y-122294261D02*
X215798133Y-122215956D01*
X215798133Y-122215956D02*
X215798133Y-122059347D01*
X215798133Y-122059347D02*
X215758980Y-121981042D01*
X215758980Y-121981042D02*
X215719828Y-121941890D01*
X215719828Y-121941890D02*
X215641523Y-121902737D01*
X174333333Y-83859580D02*
X174285714Y-83907200D01*
X174285714Y-83907200D02*
X174142857Y-83954819D01*
X174142857Y-83954819D02*
X174047619Y-83954819D01*
X174047619Y-83954819D02*
X173904762Y-83907200D01*
X173904762Y-83907200D02*
X173809524Y-83811961D01*
X173809524Y-83811961D02*
X173761905Y-83716723D01*
X173761905Y-83716723D02*
X173714286Y-83526247D01*
X173714286Y-83526247D02*
X173714286Y-83383390D01*
X173714286Y-83383390D02*
X173761905Y-83192914D01*
X173761905Y-83192914D02*
X173809524Y-83097676D01*
X173809524Y-83097676D02*
X173904762Y-83002438D01*
X173904762Y-83002438D02*
X174047619Y-82954819D01*
X174047619Y-82954819D02*
X174142857Y-82954819D01*
X174142857Y-82954819D02*
X174285714Y-83002438D01*
X174285714Y-83002438D02*
X174333333Y-83050057D01*
X174666667Y-82954819D02*
X175333333Y-82954819D01*
X175333333Y-82954819D02*
X174904762Y-83954819D01*
X172859580Y-88629166D02*
X172907200Y-88676785D01*
X172907200Y-88676785D02*
X172954819Y-88819642D01*
X172954819Y-88819642D02*
X172954819Y-88914880D01*
X172954819Y-88914880D02*
X172907200Y-89057737D01*
X172907200Y-89057737D02*
X172811961Y-89152975D01*
X172811961Y-89152975D02*
X172716723Y-89200594D01*
X172716723Y-89200594D02*
X172526247Y-89248213D01*
X172526247Y-89248213D02*
X172383390Y-89248213D01*
X172383390Y-89248213D02*
X172192914Y-89200594D01*
X172192914Y-89200594D02*
X172097676Y-89152975D01*
X172097676Y-89152975D02*
X172002438Y-89057737D01*
X172002438Y-89057737D02*
X171954819Y-88914880D01*
X171954819Y-88914880D02*
X171954819Y-88819642D01*
X171954819Y-88819642D02*
X172002438Y-88676785D01*
X172002438Y-88676785D02*
X172050057Y-88629166D01*
X172954819Y-88152975D02*
X172954819Y-87962499D01*
X172954819Y-87962499D02*
X172907200Y-87867261D01*
X172907200Y-87867261D02*
X172859580Y-87819642D01*
X172859580Y-87819642D02*
X172716723Y-87724404D01*
X172716723Y-87724404D02*
X172526247Y-87676785D01*
X172526247Y-87676785D02*
X172145295Y-87676785D01*
X172145295Y-87676785D02*
X172050057Y-87724404D01*
X172050057Y-87724404D02*
X172002438Y-87772023D01*
X172002438Y-87772023D02*
X171954819Y-87867261D01*
X171954819Y-87867261D02*
X171954819Y-88057737D01*
X171954819Y-88057737D02*
X172002438Y-88152975D01*
X172002438Y-88152975D02*
X172050057Y-88200594D01*
X172050057Y-88200594D02*
X172145295Y-88248213D01*
X172145295Y-88248213D02*
X172383390Y-88248213D01*
X172383390Y-88248213D02*
X172478628Y-88200594D01*
X172478628Y-88200594D02*
X172526247Y-88152975D01*
X172526247Y-88152975D02*
X172573866Y-88057737D01*
X172573866Y-88057737D02*
X172573866Y-87867261D01*
X172573866Y-87867261D02*
X172526247Y-87772023D01*
X172526247Y-87772023D02*
X172478628Y-87724404D01*
X172478628Y-87724404D02*
X172383390Y-87676785D01*
X162130161Y-111929266D02*
X162130161Y-110929266D01*
X162130161Y-110929266D02*
X162368256Y-110929266D01*
X162368256Y-110929266D02*
X162511113Y-110976885D01*
X162511113Y-110976885D02*
X162606351Y-111072123D01*
X162606351Y-111072123D02*
X162653970Y-111167361D01*
X162653970Y-111167361D02*
X162701589Y-111357837D01*
X162701589Y-111357837D02*
X162701589Y-111500694D01*
X162701589Y-111500694D02*
X162653970Y-111691170D01*
X162653970Y-111691170D02*
X162606351Y-111786408D01*
X162606351Y-111786408D02*
X162511113Y-111881647D01*
X162511113Y-111881647D02*
X162368256Y-111929266D01*
X162368256Y-111929266D02*
X162130161Y-111929266D01*
X163653970Y-111929266D02*
X163082542Y-111929266D01*
X163368256Y-111929266D02*
X163368256Y-110929266D01*
X163368256Y-110929266D02*
X163273018Y-111072123D01*
X163273018Y-111072123D02*
X163177780Y-111167361D01*
X163177780Y-111167361D02*
X163082542Y-111214980D01*
D13*
%TO.C,U1*%
X177640000Y-87290000D02*
X178115000Y-87290000D01*
X177640000Y-87765000D02*
X177640000Y-87290000D01*
X177640000Y-94510000D02*
X177640000Y-94035000D01*
X178115000Y-94510000D02*
X177640000Y-94510000D01*
X184385000Y-87290000D02*
X184860000Y-87290000D01*
X184860000Y-87290000D02*
X184860000Y-87765000D01*
X184860000Y-94035000D02*
X184860000Y-94510000D01*
X184860000Y-94510000D02*
X184385000Y-94510000D01*
X177110000Y-88150000D02*
X176780000Y-88390000D01*
X176780000Y-87910000D01*
X177110000Y-88150000D01*
G36*
X177110000Y-88150000D02*
G01*
X176780000Y-88390000D01*
X176780000Y-87910000D01*
X177110000Y-88150000D01*
G37*
%TO.C,D2*%
X164835000Y-107085000D02*
X164835000Y-109945000D01*
X166755000Y-107085000D02*
X164835000Y-107085000D01*
X166755000Y-109945000D02*
X166755000Y-107085000D01*
%TO.C,J3*%
X205620000Y-117730000D02*
X205620000Y-110000000D01*
X208380000Y-110000000D02*
X205620000Y-110000000D01*
X208380000Y-117730000D02*
X205620000Y-117730000D01*
X208380000Y-117730000D02*
X208380000Y-110000000D01*
X208380000Y-119000000D02*
X208380000Y-120380000D01*
X208380000Y-120380000D02*
X207000000Y-120380000D01*
%TO.C,C13*%
X169738748Y-114765000D02*
X170261252Y-114765000D01*
X169738748Y-116235000D02*
X170261252Y-116235000D01*
%TO.C,C16*%
X191265000Y-121238748D02*
X191265000Y-121761252D01*
X192735000Y-121238748D02*
X192735000Y-121761252D01*
%TO.C,C5*%
X173265000Y-92723752D02*
X173265000Y-92201248D01*
X174735000Y-92723752D02*
X174735000Y-92201248D01*
%TO.C,C11*%
X181765000Y-113738748D02*
X181765000Y-114261252D01*
X183235000Y-113738748D02*
X183235000Y-114261252D01*
%TO.C,R6*%
X182272936Y-83265000D02*
X182727064Y-83265000D01*
X182272936Y-84735000D02*
X182727064Y-84735000D01*
%TO.C,C10*%
X183265000Y-98201248D02*
X183265000Y-98723752D01*
X184735000Y-98201248D02*
X184735000Y-98723752D01*
%TO.C,R7*%
X180265000Y-103560436D02*
X180265000Y-104014564D01*
X181735000Y-103560436D02*
X181735000Y-104014564D01*
%TO.C,C6*%
X178238748Y-84227500D02*
X178761252Y-84227500D01*
X178238748Y-85697500D02*
X178761252Y-85697500D01*
%TO.C,C4*%
X180765000Y-98238748D02*
X180765000Y-98761252D01*
X182235000Y-98238748D02*
X182235000Y-98761252D01*
%TO.C,C15*%
X196765000Y-122238748D02*
X196765000Y-122761252D01*
X198235000Y-122238748D02*
X198235000Y-122761252D01*
%TO.C,C8*%
X189265000Y-83738748D02*
X189265000Y-84261252D01*
X190735000Y-83738748D02*
X190735000Y-84261252D01*
D10*
%TO.C,SW2*%
X193610000Y-136550000D02*
X205310000Y-136550000D01*
X193610000Y-138750000D02*
X193610000Y-136550000D01*
X200460000Y-143250000D02*
X198460000Y-143250000D01*
D14*
X201860000Y-135950000D02*
X201860000Y-135950000D01*
X202060000Y-135950000D02*
X202060000Y-135950000D01*
D10*
X205310000Y-136550000D02*
X205310000Y-138750000D01*
D14*
X201860000Y-135950000D02*
G75*
G02*
X202060000Y-135950000I100000J0D01*
G01*
X202060000Y-135950000D02*
G75*
G02*
X201860000Y-135950000I-100000J0D01*
G01*
D13*
%TO.C,R16*%
X193235436Y-128765000D02*
X193689564Y-128765000D01*
X193235436Y-130235000D02*
X193689564Y-130235000D01*
%TO.C,C18*%
X188738748Y-125765000D02*
X189261252Y-125765000D01*
X188738748Y-127235000D02*
X189261252Y-127235000D01*
%TO.C,C19*%
X193201248Y-125765000D02*
X193723752Y-125765000D01*
X193201248Y-127235000D02*
X193723752Y-127235000D01*
%TO.C,J7*%
X211620000Y-87620000D02*
X213000000Y-87620000D01*
X211620000Y-89000000D02*
X211620000Y-87620000D01*
X211620000Y-90270000D02*
X211620000Y-98000000D01*
X211620000Y-90270000D02*
X214380000Y-90270000D01*
X211620000Y-98000000D02*
X214380000Y-98000000D01*
X214380000Y-90270000D02*
X214380000Y-98000000D01*
%TO.C,C12*%
X183668492Y-103561826D02*
X183668492Y-104084330D01*
X185138492Y-103561826D02*
X185138492Y-104084330D01*
%TO.C,C14*%
X197265000Y-105761252D02*
X197265000Y-105238748D01*
X198735000Y-105761252D02*
X198735000Y-105238748D01*
%TO.C,SW1*%
X146360000Y-104875000D02*
X143640000Y-104875000D01*
X143640000Y-115095000D01*
X146360000Y-115095000D01*
X146360000Y-104875000D01*
%TO.C,C17*%
X193765000Y-121238748D02*
X193765000Y-121761252D01*
X195235000Y-121238748D02*
X195235000Y-121761252D01*
%TO.C,U6*%
X191390000Y-109890000D02*
X191690000Y-109890000D01*
X191390000Y-110190000D02*
X191390000Y-109890000D01*
X191390000Y-117110000D02*
X191390000Y-116810000D01*
X191690000Y-117110000D02*
X191390000Y-117110000D01*
X198310000Y-109890000D02*
X198610000Y-109890000D01*
X198610000Y-109890000D02*
X198610000Y-110190000D01*
X198610000Y-116810000D02*
X198610000Y-117110000D01*
X198610000Y-117110000D02*
X198310000Y-117110000D01*
X191680000Y-117750000D02*
X191210000Y-118090000D01*
X191210000Y-117410000D01*
X191680000Y-117750000D01*
G36*
X191680000Y-117750000D02*
G01*
X191210000Y-118090000D01*
X191210000Y-117410000D01*
X191680000Y-117750000D01*
G37*
%TO.C,C20*%
X197761252Y-125765000D02*
X197238748Y-125765000D01*
X197761252Y-127235000D02*
X197238748Y-127235000D01*
%TO.C,J2*%
X205040000Y-87620000D02*
X206420000Y-87620000D01*
X205040000Y-89000000D02*
X205040000Y-87620000D01*
X205040000Y-90270000D02*
X205040000Y-98000000D01*
X205040000Y-90270000D02*
X207800000Y-90270000D01*
X205040000Y-98000000D02*
X207800000Y-98000000D01*
X207800000Y-90270000D02*
X207800000Y-98000000D01*
%TO.C,R10*%
X186265000Y-114727064D02*
X186265000Y-114272936D01*
X187735000Y-114727064D02*
X187735000Y-114272936D01*
%TO.C,U3*%
X169890000Y-118290000D02*
X170340000Y-118290000D01*
X169890000Y-130710000D02*
X169890000Y-118290000D01*
X169890000Y-130710000D02*
X170340000Y-130710000D01*
X178260000Y-118290000D02*
X179940000Y-118290000D01*
X178260000Y-130710000D02*
X179940000Y-130710000D01*
X185660000Y-118290000D02*
X186100000Y-118290000D01*
X185660000Y-130710000D02*
X186110000Y-130710000D01*
X186110000Y-130710000D02*
X186110000Y-118290000D01*
X170340000Y-131200000D02*
X170010000Y-131440000D01*
X170010000Y-130960000D01*
X170340000Y-131200000D01*
G36*
X170340000Y-131200000D02*
G01*
X170010000Y-131440000D01*
X170010000Y-130960000D01*
X170340000Y-131200000D01*
G37*
%TO.C,R17*%
X197727064Y-128765000D02*
X197272936Y-128765000D01*
X197727064Y-130235000D02*
X197272936Y-130235000D01*
%TO.C,R8*%
X177315000Y-103560436D02*
X177315000Y-104014564D01*
X178785000Y-103560436D02*
X178785000Y-104014564D01*
%TO.C,J5*%
X169880000Y-144880000D02*
X169880000Y-143500000D01*
X171260000Y-144880000D02*
X169880000Y-144880000D01*
X172530000Y-142120000D02*
X187880000Y-142120000D01*
X172530000Y-144880000D02*
X172530000Y-142120000D01*
X172530000Y-144880000D02*
X187880000Y-144880000D01*
X187880000Y-144880000D02*
X187880000Y-142120000D01*
D10*
%TO.C,U2*%
X177900000Y-109850000D02*
X177900000Y-109630000D01*
X177900000Y-109850000D02*
X178620000Y-109850000D01*
X178100000Y-107150000D02*
X178620000Y-107150000D01*
X180380000Y-107150000D02*
X181100000Y-107150000D01*
X181100000Y-107150000D02*
X181100000Y-107370000D01*
X181100000Y-109630000D02*
X181100000Y-109850000D01*
X181100000Y-109850000D02*
X180380000Y-109850000D01*
X177900000Y-107150000D02*
X177540000Y-107150000D01*
X177900000Y-106790000D01*
X177900000Y-107150000D01*
G36*
X177900000Y-107150000D02*
G01*
X177540000Y-107150000D01*
X177900000Y-106790000D01*
X177900000Y-107150000D01*
G37*
D13*
%TO.C,R15*%
X189227064Y-128765000D02*
X188772936Y-128765000D01*
X189227064Y-130235000D02*
X188772936Y-130235000D01*
%TO.C,J8*%
X211620000Y-117730000D02*
X211620000Y-110000000D01*
X214380000Y-110000000D02*
X211620000Y-110000000D01*
X214380000Y-117730000D02*
X211620000Y-117730000D01*
X214380000Y-117730000D02*
X214380000Y-110000000D01*
X214380000Y-119000000D02*
X214380000Y-120380000D01*
X214380000Y-120380000D02*
X213000000Y-120380000D01*
%TO.C,C7*%
X174761252Y-84227500D02*
X174238748Y-84227500D01*
X174761252Y-85697500D02*
X174238748Y-85697500D01*
%TO.C,C9*%
X173265000Y-88201248D02*
X173265000Y-88723752D01*
X174735000Y-88201248D02*
X174735000Y-88723752D01*
%TO.C,D1*%
X161835000Y-107085000D02*
X161835000Y-109945000D01*
X163755000Y-107085000D02*
X161835000Y-107085000D01*
X163755000Y-109945000D02*
X163755000Y-107085000D01*
%TD*%
M02*
