M48
; DRILL file {KiCad 9.0.8} date 2026-03-18T19:29:43+0100
; FORMAT={-:-/ absolute / metric / decimal}
; #@! TF.CreationDate,2026-03-18T19:29:43+01:00
; #@! TF.GenerationSoftware,Kicad,Pcbnew,9.0.8
; #@! TF.FileFunction,Plated,1,2,PTH
FMAT,2
METRIC
; #@! TA.AperFunction,Plated,PTH,ViaDrill
T1C0.300
; #@! TA.AperFunction,Plated,PTH,ComponentDrill
T2C0.300
; #@! TA.AperFunction,Plated,PTH,ComponentDrill
T3C0.600
; #@! TA.AperFunction,Plated,PTH,ComponentDrill
T4C0.750
; #@! TA.AperFunction,Plated,PTH,ComponentDrill
T5C0.800
; #@! TA.AperFunction,Plated,PTH,ComponentDrill
T6C1.000
; #@! TA.AperFunction,Plated,PTH,ComponentDrill
T7C1.100
; #@! TA.AperFunction,Plated,PTH,ComponentDrill
T8C3.140
%
G90
G05
T1
X144.0Y-79.25
X144.0Y-80.75
X144.0Y-82.0
X145.25Y-79.25
X145.25Y-80.75
X145.25Y-82.0
X146.0Y-100.0
X146.0Y-101.5
X146.0Y-102.75
X146.5Y-79.25
X146.5Y-80.75
X146.5Y-82.0
X147.25Y-100.0
X147.25Y-101.5
X147.25Y-102.75
X148.5Y-100.0
X148.5Y-101.5
X148.5Y-102.75
X148.75Y-73.5
X148.75Y-75.0
X148.75Y-76.25
X149.75Y-100.0
X149.75Y-101.5
X149.75Y-102.75
X150.0Y-73.5
X150.0Y-75.0
X150.0Y-76.25
X150.5Y-121.5
X150.75Y-100.0
X150.75Y-101.5
X150.75Y-102.75
X151.25Y-73.5
X151.25Y-75.0
X151.25Y-76.25
X151.5Y-120.0
X152.0Y-100.0
X152.0Y-101.5
X152.0Y-102.75
X153.25Y-100.0
X153.25Y-101.5
X153.25Y-102.75
X154.5Y-100.0
X154.5Y-101.5
X154.5Y-102.75
X154.963Y-113.5
X155.5Y-100.0
X155.5Y-101.5
X155.5Y-102.75
X156.75Y-100.0
X156.75Y-101.5
X156.75Y-102.75
X158.0Y-100.0
X158.0Y-101.5
X158.0Y-102.75
X158.5Y-107.5
X158.5Y-109.5
X158.5Y-111.75
X159.0Y-113.5
X159.044Y-130.275
X159.25Y-100.0
X159.25Y-101.5
X159.25Y-102.75
X159.75Y-122.0
X159.75Y-123.0
X159.75Y-124.0
X160.144Y-130.275
X160.75Y-122.0
X160.75Y-123.0
X160.75Y-124.0
X162.69Y-100.12
X162.795Y-105.445
X166.5Y-95.17
X166.5Y-105.445
X167.0Y-135.5
X169.0Y-115.5
X169.5Y-133.0
X174.0Y-93.5
X175.0Y-132.8
X175.5Y-85.0
X176.0Y-91.5
X176.75Y-88.75
X176.75Y-89.75
X177.0Y-133.9
X177.25Y-106.5
X177.537Y-85.0
X178.05Y-102.787
X179.5Y-86.25
X179.5Y-101.5
X181.0Y-102.787
X181.75Y-111.0
X182.0Y-75.5
X182.0Y-77.0
X182.0Y-78.25
X182.5Y-112.962
X183.0Y-96.25
X183.25Y-75.5
X183.25Y-77.0
X183.25Y-78.25
X184.0Y-97.425
X184.403Y-102.786
X184.5Y-75.5
X184.5Y-77.0
X184.5Y-78.25
X184.996Y-85.801
X185.5Y-112.75
X186.0Y-86.4
X187.0Y-92.8
X187.0Y-93.5
X187.0Y-94.25
X187.0Y-95.0
X187.0Y-95.75
X187.0Y-96.5
X187.0Y-112.25
X187.543Y-84.962
X188.0Y-100.25
X188.0Y-129.5
X189.0Y-117.75
X189.0Y-122.0
X189.0Y-131.75
X189.25Y-95.0
X189.25Y-96.25
X189.25Y-97.5
X189.25Y-98.75
X190.0Y-82.962
X190.0Y-88.25
X190.25Y-122.0
X190.25Y-131.75
X190.5Y-95.0
X190.5Y-96.25
X190.5Y-97.5
X190.5Y-98.75
X190.75Y-117.75
X191.0Y-92.0
X191.5Y-91.0
X191.5Y-125.0
X191.5Y-128.0
X191.5Y-131.75
X192.0Y-95.0
X192.0Y-96.25
X192.0Y-97.5
X192.0Y-98.75
X192.0Y-120.462
X192.25Y-87.0
X192.25Y-88.25
X192.462Y-129.5
X193.0Y-102.0
X193.25Y-111.25
X193.25Y-112.75
X193.5Y-87.0
X193.5Y-88.25
X193.691Y-98.945
X194.0Y-131.75
X194.534Y-98.034
X194.75Y-87.0
X194.75Y-88.25
X195.25Y-131.75
X195.5Y-114.0
X195.5Y-115.0
X195.5Y-116.0
X195.5Y-124.5
X197.0Y-111.25
X197.0Y-112.75
X197.25Y-131.75
X197.5Y-121.462
X198.0Y-106.537
X198.5Y-129.5
X199.0Y-120.0
X199.0Y-123.5
X203.5Y-116.0
X205.5Y-103.25
X205.5Y-104.75
X205.5Y-106.0
X206.75Y-103.25
X206.75Y-104.75
X206.75Y-106.0
X208.0Y-103.25
X208.0Y-104.75
X208.0Y-106.0
X213.75Y-73.5
X213.75Y-75.0
X213.75Y-76.25
X213.75Y-142.75
X213.75Y-144.25
X213.75Y-145.5
X215.0Y-73.5
X215.0Y-75.0
X215.0Y-76.25
X215.0Y-142.75
X215.0Y-144.25
X215.0Y-145.5
X216.25Y-73.5
X216.25Y-75.0
X216.25Y-76.25
X216.25Y-142.75
X216.25Y-144.25
X216.25Y-145.5
X218.0Y-79.5
X218.0Y-81.0
X218.0Y-82.25
X218.0Y-138.5
X218.0Y-140.0
X218.0Y-141.25
X219.25Y-79.5
X219.25Y-81.0
X219.25Y-82.25
X219.25Y-138.5
X219.25Y-140.0
X219.25Y-141.25
X220.5Y-79.5
X220.5Y-81.0
X220.5Y-82.25
X220.5Y-138.5
X220.5Y-140.0
X220.5Y-141.25
T2
X163.395Y-96.945
X163.395Y-98.345
X164.595Y-96.945
X164.595Y-98.345
X165.795Y-96.945
X165.795Y-98.345
X179.25Y-90.9
X180.25Y-90.9
X181.25Y-88.9
X181.25Y-89.9
X181.25Y-90.9
X181.25Y-91.9
X181.25Y-92.9
X182.25Y-90.9
X183.25Y-90.9
T4
X155.155Y-107.675
X155.155Y-108.945
X155.155Y-110.215
X159.0Y-77.0
X159.0Y-79.0
T5
X145.0Y-107.445
X145.0Y-109.985
X145.0Y-112.525
T6
X171.26Y-143.5
X173.8Y-143.5
X176.34Y-143.5
X178.88Y-143.5
X181.42Y-143.5
X183.96Y-143.5
X186.5Y-143.5
X206.42Y-89.0
X206.42Y-91.54
X206.42Y-94.08
X206.42Y-96.62
X207.0Y-111.38
X207.0Y-113.92
X207.0Y-116.46
X207.0Y-119.0
X213.0Y-89.0
X213.0Y-91.54
X213.0Y-94.08
X213.0Y-96.62
X213.0Y-111.38
X213.0Y-113.92
X213.0Y-116.46
X213.0Y-119.0
T7
X196.92Y-140.5
X196.92Y-143.0
X199.46Y-140.5
X202.0Y-140.5
X202.0Y-143.0
T8
X193.61Y-141.75
X205.31Y-141.75
T3
G00X145.15Y-87.445
M15
G01X145.75Y-87.445
M16
G05
G00X145.15Y-96.085
M15
G01X145.75Y-96.085
M16
G05
G00X149.08Y-87.445
M15
G01X150.18Y-87.445
M16
G05
G00X149.08Y-96.085
M15
G01X150.18Y-96.085
M16
G05
M30
