%TF.GenerationSoftware,KiCad,Pcbnew,9.0.8*%
%TF.CreationDate,2026-03-18T19:26:45+01:00*%
%TF.ProjectId,SchematGrupowy,53636865-6d61-4744-9772-75706f77792e,rev?*%
%TF.SameCoordinates,Original*%
%TF.FileFunction,Soldermask,Bot*%
%TF.FilePolarity,Negative*%
%FSLAX46Y46*%
G04 Gerber Fmt 4.6, Leading zero omitted, Abs format (unit mm)*
G04 Created by KiCad (PCBNEW 9.0.8) date 2026-03-18 19:26:45*
%MOMM*%
%LPD*%
G01*
G04 APERTURE LIST*
G04 Aperture macros list*
%AMRoundRect*
0 Rectangle with rounded corners*
0 $1 Rounding radius*
0 $2 $3 $4 $5 $6 $7 $8 $9 X,Y pos of 4 corners*
0 Add a 4 corners polygon primitive as box body*
4,1,4,$2,$3,$4,$5,$6,$7,$8,$9,$2,$3,0*
0 Add four circle primitives for the rounded corners*
1,1,$1+$1,$2,$3*
1,1,$1+$1,$4,$5*
1,1,$1+$1,$6,$7*
1,1,$1+$1,$8,$9*
0 Add four rect primitives between the rounded corners*
20,1,$1+$1,$2,$3,$4,$5,0*
20,1,$1+$1,$4,$5,$6,$7,0*
20,1,$1+$1,$6,$7,$8,$9,0*
20,1,$1+$1,$8,$9,$2,$3,0*%
G04 Aperture macros list end*
%ADD10C,0.600000*%
%ADD11R,1.700000X1.700000*%
%ADD12C,1.700000*%
%ADD13C,2.100000*%
%ADD14C,1.650000*%
%ADD15C,4.710000*%
%ADD16R,1.500000X1.500000*%
%ADD17C,1.600000*%
%ADD18RoundRect,0.150000X-0.150000X0.825000X-0.150000X-0.825000X0.150000X-0.825000X0.150000X0.825000X0*%
%ADD19R,3.300000X2.410000*%
%ADD20C,0.500000*%
%ADD21RoundRect,0.250000X0.350000X0.450000X-0.350000X0.450000X-0.350000X-0.450000X0.350000X-0.450000X0*%
%ADD22RoundRect,0.250000X0.450000X-0.350000X0.450000X0.350000X-0.450000X0.350000X-0.450000X-0.350000X0*%
%ADD23R,1.500000X1.050000*%
%ADD24O,1.500000X1.050000*%
%ADD25R,0.700000X1.200000*%
%ADD26R,1.000000X0.800000*%
%ADD27R,1.000000X2.800000*%
%ADD28R,1.000000X1.200000*%
%ADD29R,1.300000X1.900000*%
%ADD30RoundRect,0.250000X-0.337500X-0.475000X0.337500X-0.475000X0.337500X0.475000X-0.337500X0.475000X0*%
%ADD31RoundRect,0.250000X-0.625000X0.350000X-0.625000X-0.350000X0.625000X-0.350000X0.625000X0.350000X0*%
%ADD32O,1.750000X1.200000*%
%ADD33C,0.650000*%
%ADD34R,1.450000X0.600000*%
%ADD35R,1.450000X0.300000*%
%ADD36O,1.600000X1.000000*%
%ADD37O,2.100000X1.000000*%
%ADD38RoundRect,0.250000X-0.350000X-0.450000X0.350000X-0.450000X0.350000X0.450000X-0.350000X0.450000X0*%
%ADD39RoundRect,0.250000X0.475000X-0.337500X0.475000X0.337500X-0.475000X0.337500X-0.475000X-0.337500X0*%
G04 APERTURE END LIST*
D10*
%TO.C,U1*%
X181250000Y-92900000D03*
X181250000Y-91900000D03*
X181250000Y-88900000D03*
X181250000Y-89900000D03*
X179250000Y-90900000D03*
X180250000Y-90900000D03*
X183250000Y-90900000D03*
X182250000Y-90900000D03*
X181250000Y-90900000D03*
%TD*%
D11*
%TO.C,J3*%
X207000000Y-119000000D03*
D12*
X207000000Y-116460000D03*
X207000000Y-113920000D03*
X207000000Y-111380000D03*
%TD*%
D13*
%TO.C,REF\u002A\u002A*%
X219500000Y-144500000D03*
%TD*%
%TO.C,REF\u002A\u002A*%
X145500000Y-144500000D03*
%TD*%
%TO.C,REF\u002A\u002A*%
X145500000Y-75000000D03*
%TD*%
D14*
%TO.C,SW2*%
X202000000Y-140500000D03*
X196920000Y-140500000D03*
X199460000Y-140500000D03*
D15*
X193610000Y-141750000D03*
X205310000Y-141750000D03*
D14*
X196920000Y-143000000D03*
X202000000Y-143000000D03*
%TD*%
D11*
%TO.C,J7*%
X213000000Y-89000000D03*
D12*
X213000000Y-91540000D03*
X213000000Y-94080000D03*
X213000000Y-96620000D03*
%TD*%
D16*
%TO.C,SW1*%
X145000000Y-109985000D03*
D17*
X145000000Y-107445000D03*
X145000000Y-112525000D03*
%TD*%
D11*
%TO.C,J2*%
X206420000Y-89000000D03*
D12*
X206420000Y-91540000D03*
X206420000Y-94080000D03*
X206420000Y-96620000D03*
%TD*%
D11*
%TO.C,J5*%
X171260000Y-143500000D03*
D12*
X173800000Y-143500000D03*
X176340000Y-143500000D03*
X178880000Y-143500000D03*
X181420000Y-143500000D03*
X183960000Y-143500000D03*
X186500000Y-143500000D03*
%TD*%
D11*
%TO.C,J8*%
X213000000Y-119000000D03*
D12*
X213000000Y-116460000D03*
X213000000Y-113920000D03*
X213000000Y-111380000D03*
%TD*%
D13*
%TO.C,REF\u002A\u002A*%
X219500000Y-75000000D03*
%TD*%
D18*
%TO.C,U4*%
X162690000Y-95170000D03*
X163960000Y-95170000D03*
X165230000Y-95170000D03*
X166500000Y-95170000D03*
X166500000Y-100120000D03*
X165230000Y-100120000D03*
X163960000Y-100120000D03*
X162690000Y-100120000D03*
D19*
X164595000Y-97645000D03*
D20*
X163395000Y-98345000D03*
%TD*%
D21*
%TO.C,R2*%
X160295000Y-92945000D03*
X158295000Y-92945000D03*
%TD*%
D22*
%TO.C,R5*%
X166500000Y-105445000D03*
X166500000Y-103445000D03*
%TD*%
D23*
%TO.C,U5*%
X155155000Y-107675000D03*
D24*
X155155000Y-108945000D03*
X155155000Y-110215000D03*
%TD*%
D25*
%TO.C,J4*%
X155744027Y-130275000D03*
X156844027Y-130275000D03*
X157944027Y-130275000D03*
X159044027Y-130275000D03*
X160144027Y-130275000D03*
X161244027Y-130275000D03*
X162344027Y-130275000D03*
X163444027Y-130275000D03*
X164394027Y-130275000D03*
D26*
X165344027Y-140775000D03*
D27*
X165344027Y-144925000D03*
D28*
X165344027Y-134575000D03*
X154194027Y-130275000D03*
D29*
X151844027Y-145375000D03*
%TD*%
D22*
%TO.C,R19*%
X159500000Y-119500000D03*
X159500000Y-117500000D03*
%TD*%
%TO.C,R4*%
X162795000Y-105445000D03*
X162795000Y-103445000D03*
%TD*%
D30*
%TO.C,C3*%
X154962500Y-113500000D03*
X157037500Y-113500000D03*
%TD*%
D31*
%TO.C,BT1*%
X159000000Y-77000000D03*
D32*
X159000000Y-79000000D03*
%TD*%
D22*
%TO.C,R21*%
X163500000Y-119500000D03*
X163500000Y-117500000D03*
%TD*%
D30*
%TO.C,C2*%
X158257500Y-83945000D03*
X160332500Y-83945000D03*
%TD*%
D33*
%TO.C,J1*%
X149100000Y-94655000D03*
X149100000Y-88875000D03*
D34*
X150545000Y-95015000D03*
X150545000Y-94215000D03*
D35*
X150545000Y-93015000D03*
X150545000Y-92015000D03*
X150545000Y-91515000D03*
X150545000Y-90515000D03*
D34*
X150545000Y-89315000D03*
X150545000Y-88515000D03*
X150545000Y-88515000D03*
X150545000Y-89315000D03*
D35*
X150545000Y-90015000D03*
X150545000Y-91015000D03*
X150545000Y-92515000D03*
X150545000Y-93515000D03*
D34*
X150545000Y-94215000D03*
X150545000Y-95015000D03*
D36*
X145450000Y-96085000D03*
D37*
X149630000Y-96085000D03*
D36*
X145450000Y-87445000D03*
D37*
X149630000Y-87445000D03*
%TD*%
D38*
%TO.C,R1*%
X158295000Y-90445000D03*
X160295000Y-90445000D03*
%TD*%
D39*
%TO.C,C1*%
X166795000Y-92482500D03*
X166795000Y-90407500D03*
%TD*%
D22*
%TO.C,R18*%
X157000000Y-119500000D03*
X157000000Y-117500000D03*
%TD*%
%TO.C,R3*%
X162795000Y-92445000D03*
X162795000Y-90445000D03*
%TD*%
%TO.C,R22*%
X166500000Y-119500000D03*
X166500000Y-117500000D03*
%TD*%
M02*
