%TF.GenerationSoftware,KiCad,Pcbnew,9.0.8*%
%TF.CreationDate,2026-03-18T19:26:44+01:00*%
%TF.ProjectId,SchematGrupowy,53636865-6d61-4744-9772-75706f77792e,rev?*%
%TF.SameCoordinates,Original*%
%TF.FileFunction,Legend,Bot*%
%TF.FilePolarity,Positive*%
%FSLAX46Y46*%
G04 Gerber Fmt 4.6, Leading zero omitted, Abs format (unit mm)*
G04 Created by KiCad (PCBNEW 9.0.8) date 2026-03-18 19:26:44*
%MOMM*%
%LPD*%
G01*
G04 APERTURE LIST*
%ADD10C,0.150000*%
%ADD11C,0.120000*%
G04 APERTURE END LIST*
D10*
X147947200Y-106166667D02*
X147994819Y-106309524D01*
X147994819Y-106309524D02*
X147994819Y-106547619D01*
X147994819Y-106547619D02*
X147947200Y-106642857D01*
X147947200Y-106642857D02*
X147899580Y-106690476D01*
X147899580Y-106690476D02*
X147804342Y-106738095D01*
X147804342Y-106738095D02*
X147709104Y-106738095D01*
X147709104Y-106738095D02*
X147613866Y-106690476D01*
X147613866Y-106690476D02*
X147566247Y-106642857D01*
X147566247Y-106642857D02*
X147518628Y-106547619D01*
X147518628Y-106547619D02*
X147471009Y-106357143D01*
X147471009Y-106357143D02*
X147423390Y-106261905D01*
X147423390Y-106261905D02*
X147375771Y-106214286D01*
X147375771Y-106214286D02*
X147280533Y-106166667D01*
X147280533Y-106166667D02*
X147185295Y-106166667D01*
X147185295Y-106166667D02*
X147090057Y-106214286D01*
X147090057Y-106214286D02*
X147042438Y-106261905D01*
X147042438Y-106261905D02*
X146994819Y-106357143D01*
X146994819Y-106357143D02*
X146994819Y-106595238D01*
X146994819Y-106595238D02*
X147042438Y-106738095D01*
X146994819Y-107071429D02*
X147994819Y-107309524D01*
X147994819Y-107309524D02*
X147280533Y-107500000D01*
X147280533Y-107500000D02*
X147994819Y-107690476D01*
X147994819Y-107690476D02*
X146994819Y-107928572D01*
X147994819Y-108833333D02*
X147994819Y-108261905D01*
X147994819Y-108547619D02*
X146994819Y-108547619D01*
X146994819Y-108547619D02*
X147137676Y-108452381D01*
X147137676Y-108452381D02*
X147232914Y-108357143D01*
X147232914Y-108357143D02*
X147280533Y-108261905D01*
X161761904Y-95954819D02*
X161761904Y-96764342D01*
X161761904Y-96764342D02*
X161714285Y-96859580D01*
X161714285Y-96859580D02*
X161666666Y-96907200D01*
X161666666Y-96907200D02*
X161571428Y-96954819D01*
X161571428Y-96954819D02*
X161380952Y-96954819D01*
X161380952Y-96954819D02*
X161285714Y-96907200D01*
X161285714Y-96907200D02*
X161238095Y-96859580D01*
X161238095Y-96859580D02*
X161190476Y-96764342D01*
X161190476Y-96764342D02*
X161190476Y-95954819D01*
X160285714Y-96288152D02*
X160285714Y-96954819D01*
X160523809Y-95907200D02*
X160761904Y-96621485D01*
X160761904Y-96621485D02*
X160142857Y-96621485D01*
X159461666Y-94954819D02*
X159794999Y-94478628D01*
X160033094Y-94954819D02*
X160033094Y-93954819D01*
X160033094Y-93954819D02*
X159652142Y-93954819D01*
X159652142Y-93954819D02*
X159556904Y-94002438D01*
X159556904Y-94002438D02*
X159509285Y-94050057D01*
X159509285Y-94050057D02*
X159461666Y-94145295D01*
X159461666Y-94145295D02*
X159461666Y-94288152D01*
X159461666Y-94288152D02*
X159509285Y-94383390D01*
X159509285Y-94383390D02*
X159556904Y-94431009D01*
X159556904Y-94431009D02*
X159652142Y-94478628D01*
X159652142Y-94478628D02*
X160033094Y-94478628D01*
X159080713Y-94050057D02*
X159033094Y-94002438D01*
X159033094Y-94002438D02*
X158937856Y-93954819D01*
X158937856Y-93954819D02*
X158699761Y-93954819D01*
X158699761Y-93954819D02*
X158604523Y-94002438D01*
X158604523Y-94002438D02*
X158556904Y-94050057D01*
X158556904Y-94050057D02*
X158509285Y-94145295D01*
X158509285Y-94145295D02*
X158509285Y-94240533D01*
X158509285Y-94240533D02*
X158556904Y-94383390D01*
X158556904Y-94383390D02*
X159128332Y-94954819D01*
X159128332Y-94954819D02*
X158509285Y-94954819D01*
X169159819Y-104333333D02*
X168683628Y-104000000D01*
X169159819Y-103761905D02*
X168159819Y-103761905D01*
X168159819Y-103761905D02*
X168159819Y-104142857D01*
X168159819Y-104142857D02*
X168207438Y-104238095D01*
X168207438Y-104238095D02*
X168255057Y-104285714D01*
X168255057Y-104285714D02*
X168350295Y-104333333D01*
X168350295Y-104333333D02*
X168493152Y-104333333D01*
X168493152Y-104333333D02*
X168588390Y-104285714D01*
X168588390Y-104285714D02*
X168636009Y-104238095D01*
X168636009Y-104238095D02*
X168683628Y-104142857D01*
X168683628Y-104142857D02*
X168683628Y-103761905D01*
X168159819Y-105238095D02*
X168159819Y-104761905D01*
X168159819Y-104761905D02*
X168636009Y-104714286D01*
X168636009Y-104714286D02*
X168588390Y-104761905D01*
X168588390Y-104761905D02*
X168540771Y-104857143D01*
X168540771Y-104857143D02*
X168540771Y-105095238D01*
X168540771Y-105095238D02*
X168588390Y-105190476D01*
X168588390Y-105190476D02*
X168636009Y-105238095D01*
X168636009Y-105238095D02*
X168731247Y-105285714D01*
X168731247Y-105285714D02*
X168969342Y-105285714D01*
X168969342Y-105285714D02*
X169064580Y-105238095D01*
X169064580Y-105238095D02*
X169112200Y-105190476D01*
X169112200Y-105190476D02*
X169159819Y-105095238D01*
X169159819Y-105095238D02*
X169159819Y-104857143D01*
X169159819Y-104857143D02*
X169112200Y-104761905D01*
X169112200Y-104761905D02*
X169064580Y-104714286D01*
X157454819Y-108238095D02*
X158264342Y-108238095D01*
X158264342Y-108238095D02*
X158359580Y-108285714D01*
X158359580Y-108285714D02*
X158407200Y-108333333D01*
X158407200Y-108333333D02*
X158454819Y-108428571D01*
X158454819Y-108428571D02*
X158454819Y-108619047D01*
X158454819Y-108619047D02*
X158407200Y-108714285D01*
X158407200Y-108714285D02*
X158359580Y-108761904D01*
X158359580Y-108761904D02*
X158264342Y-108809523D01*
X158264342Y-108809523D02*
X157454819Y-108809523D01*
X157454819Y-109761904D02*
X157454819Y-109285714D01*
X157454819Y-109285714D02*
X157931009Y-109238095D01*
X157931009Y-109238095D02*
X157883390Y-109285714D01*
X157883390Y-109285714D02*
X157835771Y-109380952D01*
X157835771Y-109380952D02*
X157835771Y-109619047D01*
X157835771Y-109619047D02*
X157883390Y-109714285D01*
X157883390Y-109714285D02*
X157931009Y-109761904D01*
X157931009Y-109761904D02*
X158026247Y-109809523D01*
X158026247Y-109809523D02*
X158264342Y-109809523D01*
X158264342Y-109809523D02*
X158359580Y-109761904D01*
X158359580Y-109761904D02*
X158407200Y-109714285D01*
X158407200Y-109714285D02*
X158454819Y-109619047D01*
X158454819Y-109619047D02*
X158454819Y-109380952D01*
X158454819Y-109380952D02*
X158407200Y-109285714D01*
X158407200Y-109285714D02*
X158359580Y-109238095D01*
X161333333Y-127929819D02*
X161333333Y-128644104D01*
X161333333Y-128644104D02*
X161380952Y-128786961D01*
X161380952Y-128786961D02*
X161476190Y-128882200D01*
X161476190Y-128882200D02*
X161619047Y-128929819D01*
X161619047Y-128929819D02*
X161714285Y-128929819D01*
X160428571Y-128263152D02*
X160428571Y-128929819D01*
X160666666Y-127882200D02*
X160904761Y-128596485D01*
X160904761Y-128596485D02*
X160285714Y-128596485D01*
X159954819Y-121857142D02*
X159478628Y-121523809D01*
X159954819Y-121285714D02*
X158954819Y-121285714D01*
X158954819Y-121285714D02*
X158954819Y-121666666D01*
X158954819Y-121666666D02*
X159002438Y-121761904D01*
X159002438Y-121761904D02*
X159050057Y-121809523D01*
X159050057Y-121809523D02*
X159145295Y-121857142D01*
X159145295Y-121857142D02*
X159288152Y-121857142D01*
X159288152Y-121857142D02*
X159383390Y-121809523D01*
X159383390Y-121809523D02*
X159431009Y-121761904D01*
X159431009Y-121761904D02*
X159478628Y-121666666D01*
X159478628Y-121666666D02*
X159478628Y-121285714D01*
X159954819Y-122809523D02*
X159954819Y-122238095D01*
X159954819Y-122523809D02*
X158954819Y-122523809D01*
X158954819Y-122523809D02*
X159097676Y-122428571D01*
X159097676Y-122428571D02*
X159192914Y-122333333D01*
X159192914Y-122333333D02*
X159240533Y-122238095D01*
X159954819Y-123285714D02*
X159954819Y-123476190D01*
X159954819Y-123476190D02*
X159907200Y-123571428D01*
X159907200Y-123571428D02*
X159859580Y-123619047D01*
X159859580Y-123619047D02*
X159716723Y-123714285D01*
X159716723Y-123714285D02*
X159526247Y-123761904D01*
X159526247Y-123761904D02*
X159145295Y-123761904D01*
X159145295Y-123761904D02*
X159050057Y-123714285D01*
X159050057Y-123714285D02*
X159002438Y-123666666D01*
X159002438Y-123666666D02*
X158954819Y-123571428D01*
X158954819Y-123571428D02*
X158954819Y-123380952D01*
X158954819Y-123380952D02*
X159002438Y-123285714D01*
X159002438Y-123285714D02*
X159050057Y-123238095D01*
X159050057Y-123238095D02*
X159145295Y-123190476D01*
X159145295Y-123190476D02*
X159383390Y-123190476D01*
X159383390Y-123190476D02*
X159478628Y-123238095D01*
X159478628Y-123238095D02*
X159526247Y-123285714D01*
X159526247Y-123285714D02*
X159573866Y-123380952D01*
X159573866Y-123380952D02*
X159573866Y-123571428D01*
X159573866Y-123571428D02*
X159526247Y-123666666D01*
X159526247Y-123666666D02*
X159478628Y-123714285D01*
X159478628Y-123714285D02*
X159383390Y-123761904D01*
X164899819Y-104278333D02*
X164423628Y-103945000D01*
X164899819Y-103706905D02*
X163899819Y-103706905D01*
X163899819Y-103706905D02*
X163899819Y-104087857D01*
X163899819Y-104087857D02*
X163947438Y-104183095D01*
X163947438Y-104183095D02*
X163995057Y-104230714D01*
X163995057Y-104230714D02*
X164090295Y-104278333D01*
X164090295Y-104278333D02*
X164233152Y-104278333D01*
X164233152Y-104278333D02*
X164328390Y-104230714D01*
X164328390Y-104230714D02*
X164376009Y-104183095D01*
X164376009Y-104183095D02*
X164423628Y-104087857D01*
X164423628Y-104087857D02*
X164423628Y-103706905D01*
X164233152Y-105135476D02*
X164899819Y-105135476D01*
X163852200Y-104897381D02*
X164566485Y-104659286D01*
X164566485Y-104659286D02*
X164566485Y-105278333D01*
X159166666Y-113859580D02*
X159214285Y-113907200D01*
X159214285Y-113907200D02*
X159357142Y-113954819D01*
X159357142Y-113954819D02*
X159452380Y-113954819D01*
X159452380Y-113954819D02*
X159595237Y-113907200D01*
X159595237Y-113907200D02*
X159690475Y-113811961D01*
X159690475Y-113811961D02*
X159738094Y-113716723D01*
X159738094Y-113716723D02*
X159785713Y-113526247D01*
X159785713Y-113526247D02*
X159785713Y-113383390D01*
X159785713Y-113383390D02*
X159738094Y-113192914D01*
X159738094Y-113192914D02*
X159690475Y-113097676D01*
X159690475Y-113097676D02*
X159595237Y-113002438D01*
X159595237Y-113002438D02*
X159452380Y-112954819D01*
X159452380Y-112954819D02*
X159357142Y-112954819D01*
X159357142Y-112954819D02*
X159214285Y-113002438D01*
X159214285Y-113002438D02*
X159166666Y-113050057D01*
X158833332Y-112954819D02*
X158214285Y-112954819D01*
X158214285Y-112954819D02*
X158547618Y-113335771D01*
X158547618Y-113335771D02*
X158404761Y-113335771D01*
X158404761Y-113335771D02*
X158309523Y-113383390D01*
X158309523Y-113383390D02*
X158261904Y-113431009D01*
X158261904Y-113431009D02*
X158214285Y-113526247D01*
X158214285Y-113526247D02*
X158214285Y-113764342D01*
X158214285Y-113764342D02*
X158261904Y-113859580D01*
X158261904Y-113859580D02*
X158309523Y-113907200D01*
X158309523Y-113907200D02*
X158404761Y-113954819D01*
X158404761Y-113954819D02*
X158690475Y-113954819D01*
X158690475Y-113954819D02*
X158785713Y-113907200D01*
X158785713Y-113907200D02*
X158833332Y-113859580D01*
X156381009Y-77214285D02*
X156428628Y-77357142D01*
X156428628Y-77357142D02*
X156476247Y-77404761D01*
X156476247Y-77404761D02*
X156571485Y-77452380D01*
X156571485Y-77452380D02*
X156714342Y-77452380D01*
X156714342Y-77452380D02*
X156809580Y-77404761D01*
X156809580Y-77404761D02*
X156857200Y-77357142D01*
X156857200Y-77357142D02*
X156904819Y-77261904D01*
X156904819Y-77261904D02*
X156904819Y-76880952D01*
X156904819Y-76880952D02*
X155904819Y-76880952D01*
X155904819Y-76880952D02*
X155904819Y-77214285D01*
X155904819Y-77214285D02*
X155952438Y-77309523D01*
X155952438Y-77309523D02*
X156000057Y-77357142D01*
X156000057Y-77357142D02*
X156095295Y-77404761D01*
X156095295Y-77404761D02*
X156190533Y-77404761D01*
X156190533Y-77404761D02*
X156285771Y-77357142D01*
X156285771Y-77357142D02*
X156333390Y-77309523D01*
X156333390Y-77309523D02*
X156381009Y-77214285D01*
X156381009Y-77214285D02*
X156381009Y-76880952D01*
X155904819Y-77738095D02*
X155904819Y-78309523D01*
X156904819Y-78023809D02*
X155904819Y-78023809D01*
X156904819Y-79166666D02*
X156904819Y-78595238D01*
X156904819Y-78880952D02*
X155904819Y-78880952D01*
X155904819Y-78880952D02*
X156047676Y-78785714D01*
X156047676Y-78785714D02*
X156142914Y-78690476D01*
X156142914Y-78690476D02*
X156190533Y-78595238D01*
X163954819Y-121857142D02*
X163478628Y-121523809D01*
X163954819Y-121285714D02*
X162954819Y-121285714D01*
X162954819Y-121285714D02*
X162954819Y-121666666D01*
X162954819Y-121666666D02*
X163002438Y-121761904D01*
X163002438Y-121761904D02*
X163050057Y-121809523D01*
X163050057Y-121809523D02*
X163145295Y-121857142D01*
X163145295Y-121857142D02*
X163288152Y-121857142D01*
X163288152Y-121857142D02*
X163383390Y-121809523D01*
X163383390Y-121809523D02*
X163431009Y-121761904D01*
X163431009Y-121761904D02*
X163478628Y-121666666D01*
X163478628Y-121666666D02*
X163478628Y-121285714D01*
X163050057Y-122238095D02*
X163002438Y-122285714D01*
X163002438Y-122285714D02*
X162954819Y-122380952D01*
X162954819Y-122380952D02*
X162954819Y-122619047D01*
X162954819Y-122619047D02*
X163002438Y-122714285D01*
X163002438Y-122714285D02*
X163050057Y-122761904D01*
X163050057Y-122761904D02*
X163145295Y-122809523D01*
X163145295Y-122809523D02*
X163240533Y-122809523D01*
X163240533Y-122809523D02*
X163383390Y-122761904D01*
X163383390Y-122761904D02*
X163954819Y-122190476D01*
X163954819Y-122190476D02*
X163954819Y-122809523D01*
X163954819Y-123761904D02*
X163954819Y-123190476D01*
X163954819Y-123476190D02*
X162954819Y-123476190D01*
X162954819Y-123476190D02*
X163097676Y-123380952D01*
X163097676Y-123380952D02*
X163192914Y-123285714D01*
X163192914Y-123285714D02*
X163240533Y-123190476D01*
X162666666Y-84359580D02*
X162714285Y-84407200D01*
X162714285Y-84407200D02*
X162857142Y-84454819D01*
X162857142Y-84454819D02*
X162952380Y-84454819D01*
X162952380Y-84454819D02*
X163095237Y-84407200D01*
X163095237Y-84407200D02*
X163190475Y-84311961D01*
X163190475Y-84311961D02*
X163238094Y-84216723D01*
X163238094Y-84216723D02*
X163285713Y-84026247D01*
X163285713Y-84026247D02*
X163285713Y-83883390D01*
X163285713Y-83883390D02*
X163238094Y-83692914D01*
X163238094Y-83692914D02*
X163190475Y-83597676D01*
X163190475Y-83597676D02*
X163095237Y-83502438D01*
X163095237Y-83502438D02*
X162952380Y-83454819D01*
X162952380Y-83454819D02*
X162857142Y-83454819D01*
X162857142Y-83454819D02*
X162714285Y-83502438D01*
X162714285Y-83502438D02*
X162666666Y-83550057D01*
X162285713Y-83550057D02*
X162238094Y-83502438D01*
X162238094Y-83502438D02*
X162142856Y-83454819D01*
X162142856Y-83454819D02*
X161904761Y-83454819D01*
X161904761Y-83454819D02*
X161809523Y-83502438D01*
X161809523Y-83502438D02*
X161761904Y-83550057D01*
X161761904Y-83550057D02*
X161714285Y-83645295D01*
X161714285Y-83645295D02*
X161714285Y-83740533D01*
X161714285Y-83740533D02*
X161761904Y-83883390D01*
X161761904Y-83883390D02*
X162333332Y-84454819D01*
X162333332Y-84454819D02*
X161714285Y-84454819D01*
X143454819Y-97666666D02*
X144169104Y-97666666D01*
X144169104Y-97666666D02*
X144311961Y-97619047D01*
X144311961Y-97619047D02*
X144407200Y-97523809D01*
X144407200Y-97523809D02*
X144454819Y-97380952D01*
X144454819Y-97380952D02*
X144454819Y-97285714D01*
X144454819Y-98666666D02*
X144454819Y-98095238D01*
X144454819Y-98380952D02*
X143454819Y-98380952D01*
X143454819Y-98380952D02*
X143597676Y-98285714D01*
X143597676Y-98285714D02*
X143692914Y-98190476D01*
X143692914Y-98190476D02*
X143740533Y-98095238D01*
X159666666Y-89454819D02*
X159999999Y-88978628D01*
X160238094Y-89454819D02*
X160238094Y-88454819D01*
X160238094Y-88454819D02*
X159857142Y-88454819D01*
X159857142Y-88454819D02*
X159761904Y-88502438D01*
X159761904Y-88502438D02*
X159714285Y-88550057D01*
X159714285Y-88550057D02*
X159666666Y-88645295D01*
X159666666Y-88645295D02*
X159666666Y-88788152D01*
X159666666Y-88788152D02*
X159714285Y-88883390D01*
X159714285Y-88883390D02*
X159761904Y-88931009D01*
X159761904Y-88931009D02*
X159857142Y-88978628D01*
X159857142Y-88978628D02*
X160238094Y-88978628D01*
X158714285Y-89454819D02*
X159285713Y-89454819D01*
X158999999Y-89454819D02*
X158999999Y-88454819D01*
X158999999Y-88454819D02*
X159095237Y-88597676D01*
X159095237Y-88597676D02*
X159190475Y-88692914D01*
X159190475Y-88692914D02*
X159285713Y-88740533D01*
X166666666Y-89359580D02*
X166714285Y-89407200D01*
X166714285Y-89407200D02*
X166857142Y-89454819D01*
X166857142Y-89454819D02*
X166952380Y-89454819D01*
X166952380Y-89454819D02*
X167095237Y-89407200D01*
X167095237Y-89407200D02*
X167190475Y-89311961D01*
X167190475Y-89311961D02*
X167238094Y-89216723D01*
X167238094Y-89216723D02*
X167285713Y-89026247D01*
X167285713Y-89026247D02*
X167285713Y-88883390D01*
X167285713Y-88883390D02*
X167238094Y-88692914D01*
X167238094Y-88692914D02*
X167190475Y-88597676D01*
X167190475Y-88597676D02*
X167095237Y-88502438D01*
X167095237Y-88502438D02*
X166952380Y-88454819D01*
X166952380Y-88454819D02*
X166857142Y-88454819D01*
X166857142Y-88454819D02*
X166714285Y-88502438D01*
X166714285Y-88502438D02*
X166666666Y-88550057D01*
X165714285Y-89454819D02*
X166285713Y-89454819D01*
X165999999Y-89454819D02*
X165999999Y-88454819D01*
X165999999Y-88454819D02*
X166095237Y-88597676D01*
X166095237Y-88597676D02*
X166190475Y-88692914D01*
X166190475Y-88692914D02*
X166285713Y-88740533D01*
X156454819Y-121857142D02*
X155978628Y-121523809D01*
X156454819Y-121285714D02*
X155454819Y-121285714D01*
X155454819Y-121285714D02*
X155454819Y-121666666D01*
X155454819Y-121666666D02*
X155502438Y-121761904D01*
X155502438Y-121761904D02*
X155550057Y-121809523D01*
X155550057Y-121809523D02*
X155645295Y-121857142D01*
X155645295Y-121857142D02*
X155788152Y-121857142D01*
X155788152Y-121857142D02*
X155883390Y-121809523D01*
X155883390Y-121809523D02*
X155931009Y-121761904D01*
X155931009Y-121761904D02*
X155978628Y-121666666D01*
X155978628Y-121666666D02*
X155978628Y-121285714D01*
X156454819Y-122809523D02*
X156454819Y-122238095D01*
X156454819Y-122523809D02*
X155454819Y-122523809D01*
X155454819Y-122523809D02*
X155597676Y-122428571D01*
X155597676Y-122428571D02*
X155692914Y-122333333D01*
X155692914Y-122333333D02*
X155740533Y-122238095D01*
X155883390Y-123380952D02*
X155835771Y-123285714D01*
X155835771Y-123285714D02*
X155788152Y-123238095D01*
X155788152Y-123238095D02*
X155692914Y-123190476D01*
X155692914Y-123190476D02*
X155645295Y-123190476D01*
X155645295Y-123190476D02*
X155550057Y-123238095D01*
X155550057Y-123238095D02*
X155502438Y-123285714D01*
X155502438Y-123285714D02*
X155454819Y-123380952D01*
X155454819Y-123380952D02*
X155454819Y-123571428D01*
X155454819Y-123571428D02*
X155502438Y-123666666D01*
X155502438Y-123666666D02*
X155550057Y-123714285D01*
X155550057Y-123714285D02*
X155645295Y-123761904D01*
X155645295Y-123761904D02*
X155692914Y-123761904D01*
X155692914Y-123761904D02*
X155788152Y-123714285D01*
X155788152Y-123714285D02*
X155835771Y-123666666D01*
X155835771Y-123666666D02*
X155883390Y-123571428D01*
X155883390Y-123571428D02*
X155883390Y-123380952D01*
X155883390Y-123380952D02*
X155931009Y-123285714D01*
X155931009Y-123285714D02*
X155978628Y-123238095D01*
X155978628Y-123238095D02*
X156073866Y-123190476D01*
X156073866Y-123190476D02*
X156264342Y-123190476D01*
X156264342Y-123190476D02*
X156359580Y-123238095D01*
X156359580Y-123238095D02*
X156407200Y-123285714D01*
X156407200Y-123285714D02*
X156454819Y-123380952D01*
X156454819Y-123380952D02*
X156454819Y-123571428D01*
X156454819Y-123571428D02*
X156407200Y-123666666D01*
X156407200Y-123666666D02*
X156359580Y-123714285D01*
X156359580Y-123714285D02*
X156264342Y-123761904D01*
X156264342Y-123761904D02*
X156073866Y-123761904D01*
X156073866Y-123761904D02*
X155978628Y-123714285D01*
X155978628Y-123714285D02*
X155931009Y-123666666D01*
X155931009Y-123666666D02*
X155883390Y-123571428D01*
X162961666Y-89454819D02*
X163294999Y-88978628D01*
X163533094Y-89454819D02*
X163533094Y-88454819D01*
X163533094Y-88454819D02*
X163152142Y-88454819D01*
X163152142Y-88454819D02*
X163056904Y-88502438D01*
X163056904Y-88502438D02*
X163009285Y-88550057D01*
X163009285Y-88550057D02*
X162961666Y-88645295D01*
X162961666Y-88645295D02*
X162961666Y-88788152D01*
X162961666Y-88788152D02*
X163009285Y-88883390D01*
X163009285Y-88883390D02*
X163056904Y-88931009D01*
X163056904Y-88931009D02*
X163152142Y-88978628D01*
X163152142Y-88978628D02*
X163533094Y-88978628D01*
X162628332Y-88454819D02*
X162009285Y-88454819D01*
X162009285Y-88454819D02*
X162342618Y-88835771D01*
X162342618Y-88835771D02*
X162199761Y-88835771D01*
X162199761Y-88835771D02*
X162104523Y-88883390D01*
X162104523Y-88883390D02*
X162056904Y-88931009D01*
X162056904Y-88931009D02*
X162009285Y-89026247D01*
X162009285Y-89026247D02*
X162009285Y-89264342D01*
X162009285Y-89264342D02*
X162056904Y-89359580D01*
X162056904Y-89359580D02*
X162104523Y-89407200D01*
X162104523Y-89407200D02*
X162199761Y-89454819D01*
X162199761Y-89454819D02*
X162485475Y-89454819D01*
X162485475Y-89454819D02*
X162580713Y-89407200D01*
X162580713Y-89407200D02*
X162628332Y-89359580D01*
X166454819Y-121857142D02*
X165978628Y-121523809D01*
X166454819Y-121285714D02*
X165454819Y-121285714D01*
X165454819Y-121285714D02*
X165454819Y-121666666D01*
X165454819Y-121666666D02*
X165502438Y-121761904D01*
X165502438Y-121761904D02*
X165550057Y-121809523D01*
X165550057Y-121809523D02*
X165645295Y-121857142D01*
X165645295Y-121857142D02*
X165788152Y-121857142D01*
X165788152Y-121857142D02*
X165883390Y-121809523D01*
X165883390Y-121809523D02*
X165931009Y-121761904D01*
X165931009Y-121761904D02*
X165978628Y-121666666D01*
X165978628Y-121666666D02*
X165978628Y-121285714D01*
X165550057Y-122238095D02*
X165502438Y-122285714D01*
X165502438Y-122285714D02*
X165454819Y-122380952D01*
X165454819Y-122380952D02*
X165454819Y-122619047D01*
X165454819Y-122619047D02*
X165502438Y-122714285D01*
X165502438Y-122714285D02*
X165550057Y-122761904D01*
X165550057Y-122761904D02*
X165645295Y-122809523D01*
X165645295Y-122809523D02*
X165740533Y-122809523D01*
X165740533Y-122809523D02*
X165883390Y-122761904D01*
X165883390Y-122761904D02*
X166454819Y-122190476D01*
X166454819Y-122190476D02*
X166454819Y-122809523D01*
X165550057Y-123190476D02*
X165502438Y-123238095D01*
X165502438Y-123238095D02*
X165454819Y-123333333D01*
X165454819Y-123333333D02*
X165454819Y-123571428D01*
X165454819Y-123571428D02*
X165502438Y-123666666D01*
X165502438Y-123666666D02*
X165550057Y-123714285D01*
X165550057Y-123714285D02*
X165645295Y-123761904D01*
X165645295Y-123761904D02*
X165740533Y-123761904D01*
X165740533Y-123761904D02*
X165883390Y-123714285D01*
X165883390Y-123714285D02*
X166454819Y-123142857D01*
X166454819Y-123142857D02*
X166454819Y-123761904D01*
D11*
%TO.C,U4*%
X162035000Y-95585000D02*
X162035000Y-99705000D01*
X162035000Y-99705000D02*
X162130000Y-99705000D01*
X162130000Y-95585000D02*
X162035000Y-95585000D01*
X167060000Y-99705000D02*
X167155000Y-99705000D01*
X167155000Y-95585000D02*
X167060000Y-95585000D01*
X167155000Y-99705000D02*
X167155000Y-95585000D01*
X162125000Y-95045000D02*
X161795000Y-95285000D01*
X161795000Y-94805000D01*
X162125000Y-95045000D01*
G36*
X162125000Y-95045000D02*
G01*
X161795000Y-95285000D01*
X161795000Y-94805000D01*
X162125000Y-95045000D01*
G37*
%TO.C,R2*%
X159522064Y-92210000D02*
X159067936Y-92210000D01*
X159522064Y-93680000D02*
X159067936Y-93680000D01*
%TO.C,R5*%
X165765000Y-104672064D02*
X165765000Y-104217936D01*
X167235000Y-104672064D02*
X167235000Y-104217936D01*
%TO.C,U5*%
X157005000Y-107145000D02*
X157005000Y-110745000D01*
X152555000Y-108945000D02*
G75*
G02*
X156993478Y-107106522I2600000J0D01*
G01*
X156993478Y-110783478D02*
G75*
G02*
X152554999Y-108945000I-1838478J1838478D01*
G01*
%TO.C,J4*%
X151524027Y-130115000D02*
X151524027Y-144125000D01*
X153004027Y-146185000D02*
X152744027Y-146185000D01*
X153204027Y-146385000D02*
X153004027Y-146185000D01*
X153204027Y-146385000D02*
X155514027Y-146385000D01*
X153444027Y-130115000D02*
X151524027Y-130115000D01*
X155514027Y-146385000D02*
X156024027Y-146035000D01*
X162394027Y-146035000D02*
X156024027Y-146035000D01*
X162394027Y-146035000D02*
X162394027Y-146185000D01*
X162604027Y-146385000D02*
X162394027Y-146185000D01*
X164464027Y-146385000D02*
X162604027Y-146385000D01*
X164464027Y-146385000D02*
X164664027Y-146185000D01*
X165044027Y-130115000D02*
X165494027Y-130115000D01*
X165494027Y-130115000D02*
X165494027Y-133725000D01*
X165494027Y-135425000D02*
X165494027Y-140125000D01*
X165494027Y-141425000D02*
X165494027Y-143225000D01*
%TO.C,R19*%
X158765000Y-118727064D02*
X158765000Y-118272936D01*
X160235000Y-118727064D02*
X160235000Y-118272936D01*
%TO.C,R4*%
X162060000Y-104672064D02*
X162060000Y-104217936D01*
X163530000Y-104672064D02*
X163530000Y-104217936D01*
%TO.C,C3*%
X155738748Y-112765000D02*
X156261252Y-112765000D01*
X155738748Y-114235000D02*
X156261252Y-114235000D01*
%TO.C,BT1*%
X157540000Y-74940000D02*
X165360000Y-74940000D01*
X157540000Y-75860000D02*
X157540000Y-74940000D01*
X157540000Y-80140000D02*
X159140000Y-80140000D01*
X157540000Y-81060000D02*
X157540000Y-80140000D01*
X159140000Y-74940000D02*
X159140000Y-75860000D01*
X159140000Y-75860000D02*
X157540000Y-75860000D01*
X159140000Y-76140000D02*
X157925000Y-76140000D01*
X159140000Y-76140000D02*
X159140000Y-75860000D01*
X159140000Y-80140000D02*
X159140000Y-79860000D01*
X159140000Y-81060000D02*
X159140000Y-80140000D01*
X161000000Y-77500000D02*
X161000000Y-78500000D01*
X161000000Y-78500000D02*
X165360000Y-78500000D01*
X163100000Y-76200000D02*
X165360000Y-76200000D01*
X163100000Y-76700000D02*
X165360000Y-76700000D01*
X165360000Y-74940000D02*
X165360000Y-81060000D01*
X165360000Y-77500000D02*
X161000000Y-77500000D01*
X165360000Y-81060000D02*
X157540000Y-81060000D01*
X161500000Y-75700000D02*
X163100000Y-75700000D01*
X163100000Y-76700000D01*
X161500000Y-76700000D01*
X161500000Y-75700000D01*
X161500000Y-79300000D02*
X163100000Y-79300000D01*
X163100000Y-80300000D01*
X161500000Y-80300000D01*
X161500000Y-79300000D01*
%TO.C,R21*%
X162765000Y-118727064D02*
X162765000Y-118272936D01*
X164235000Y-118727064D02*
X164235000Y-118272936D01*
%TO.C,C2*%
X159033748Y-83210000D02*
X159556252Y-83210000D01*
X159033748Y-84680000D02*
X159556252Y-84680000D01*
%TO.C,J1*%
X142600000Y-96465000D02*
X142600000Y-87065000D01*
X144500000Y-87065000D02*
X142600000Y-87065000D01*
X144500000Y-96465000D02*
X142600000Y-96465000D01*
X148400000Y-87065000D02*
X146400000Y-87065000D01*
X148400000Y-96465000D02*
X146400000Y-96465000D01*
%TO.C,R1*%
X159067936Y-89710000D02*
X159522064Y-89710000D01*
X159067936Y-91180000D02*
X159522064Y-91180000D01*
%TO.C,C1*%
X166060000Y-91706252D02*
X166060000Y-91183748D01*
X167530000Y-91706252D02*
X167530000Y-91183748D01*
%TO.C,R18*%
X156265000Y-118727064D02*
X156265000Y-118272936D01*
X157735000Y-118727064D02*
X157735000Y-118272936D01*
%TO.C,R3*%
X162060000Y-91672064D02*
X162060000Y-91217936D01*
X163530000Y-91672064D02*
X163530000Y-91217936D01*
%TO.C,R22*%
X165765000Y-118727064D02*
X165765000Y-118272936D01*
X167235000Y-118727064D02*
X167235000Y-118272936D01*
%TD*%
M02*
